<svg xmlns="http://www.w3.org/2000/svg" width="26.683" height="26.683" viewBox="0 0 26.683 26.683"><g transform="translate(0 0.08)"><path d="M24.083,22.04a3.017,3.017,0,0,1-2.747,2.8c-2.518.114-5.136.174-7.847.163-3.148-.012-6.172-.117-9.06-.293A3,3,0,0,1,1.757,22.17c-.377-2-.714-4.112-.99-6.341A102.227,102.227,0,0,1,0,4.489,3.114,3.114,0,0,1,2.391,1.316,73.254,73.254,0,0,1,22.317.255a3.074,3.074,0,0,1,2.671,3.137c.036,2.895-.007,5.964-.16,9.187C24.669,15.917,24.409,19.076,24.083,22.04Z" transform="matrix(0.998, -0.07, 0.07, 0.998, 0, 1.664)" fill="#fff"/><path d="M7.959,9,8.4,6.1H5.639V4.225A1.444,1.444,0,0,1,7.262,2.661H8.518V.2A15.22,15.22,0,0,0,6.289,0C4.015,0,2.528,1.387,2.528,3.9V6.1H0V9H2.528v7H5.639V9Z" transform="matrix(0.998, -0.07, 0.07, 0.998, 9, 5.514)" fill="#6352ff"/></g></svg>