<svg xmlns="http://www.w3.org/2000/svg" xmlns:xlink="http://www.w3.org/1999/xlink" width="1363.537" height="442.702" viewBox="0 0 1363.537 442.702"><defs><clipPath id="a"><path d="M1332.61,368.921c-4.42,25.888-34.624,45.718-71.329,46.793q-98.058,2.872-203.749,2.73c-81.744-.2-867.58,2.072-942.559-.869-34.01-1.334-62.423-18.78-69.35-42.452C35.846,341.718,27.1,306.3,19.926,268.987A1114.71,1114.71,0,0,1,.007,79.174c-.487-26.1,25.841-48.625,62.07-53.107,78.294-9.683,874.155-21.4,971.4-24.538,92.311-2.976,177.27-1.362,253.293,2.738,38.8,2.092,68.81,24.9,69.348,52.517.945,48.458-.186,99.823-4.165,153.775C1347.831,266.421,1341.084,319.306,1332.61,368.921Z" transform="matrix(1, -0.017, 0.017, 1, -9036.379, 1678.84)" fill="#69d4f3"/></clipPath></defs><g transform="translate(431.379 -1271.167)"><path d="M1332.61,368.921c-4.42,25.888-34.624,45.718-71.329,46.793q-98.058,2.872-203.749,2.73c-81.744-.2-867.58,2.072-942.559-.869-34.01-1.334-62.423-18.78-69.35-42.452C35.846,341.718,27.1,306.3,19.926,268.987A1114.71,1114.71,0,0,1,.007,79.174c-.487-26.1,25.841-48.625,62.07-53.107,78.294-9.683,874.155-21.4,971.4-24.538,92.311-2.976,177.27-1.362,253.293,2.738,38.8,2.092,68.81,24.9,69.348,52.517.945,48.458-.186,99.823-4.165,153.775C1347.831,266.421,1341.084,319.306,1332.61,368.921Z" transform="matrix(1, -0.017, 0.017, 1, -431.379, 1294.84)" fill="#69d4f3"/><g transform="translate(8605 -384)" clip-path="url(#a)"><g transform="translate(-9238.138 1373.146)" opacity="0.5" style="mix-blend-mode:multiply;isolation:isolate"><path d="M1979.649,2365.265c124.894,109.346,321.139,190.4,511.655,211.323,80.143,8.8,158.055,7.519,237.54,12.838,80.335,5.377,161.909,17.472,243.195,30.589,52.665,8.5,105.584,17.494,157.525,31.261,156.229,41.409,291.252,122.354,412.351,204.824,79.348,54.037,158.085,112.661,194.478,178.386" transform="translate(-1753.517 -2365.265)" fill="none" stroke="#36d0fc" stroke-linecap="round" stroke-miterlimit="10" stroke-width="3" opacity="0.5"/><path d="M1998.764,2443.161c124.9,109.346,321.141,190.4,511.659,211.323,80.14,8.8,158.053,7.519,237.538,12.838,80.335,5.377,161.91,17.472,243.195,30.589,52.665,8.5,105.584,17.494,157.525,31.261,156.229,41.409,291.252,122.354,412.351,204.824,79.351,54.037,158.086,112.661,194.481,178.386" transform="translate(-1817.86 -2352.369)" fill="none" stroke="#36d0fc" stroke-linecap="round" stroke-miterlimit="10" stroke-width="3" opacity="0.5"/><path d="M2017.88,2521.057c124.895,109.346,321.138,190.4,511.655,211.323,80.141,8.8,158.053,7.519,237.539,12.838,80.334,5.377,161.909,17.472,243.2,30.589,52.663,8.5,105.581,17.494,157.525,31.261,156.226,41.409,291.249,122.354,412.348,204.824,79.351,54.037,158.087,112.661,194.481,178.386" transform="translate(-1882.2 -2339.474)" fill="none" stroke="#36d0fc" stroke-linecap="round" stroke-miterlimit="10" stroke-width="3" opacity="0.5"/><path d="M2037,2598.953c124.895,109.346,321.138,190.4,511.655,211.323,80.141,8.8,158.053,7.519,237.541,12.838,80.332,5.377,161.907,17.472,243.2,30.589,52.663,8.5,105.583,17.494,157.525,31.261,156.227,41.409,291.249,122.354,412.348,204.824,79.35,54.037,158.086,112.661,194.48,178.386" transform="translate(-1946.542 -2326.578)" fill="none" stroke="#36d0fc" stroke-linecap="round" stroke-miterlimit="10" stroke-width="3" opacity="0.5"/><path d="M2056.112,2676.849c124.894,109.346,321.14,190.4,511.655,211.323,80.141,8.8,158.055,7.519,237.541,12.839,80.332,5.376,161.909,17.471,243.2,30.588,52.662,8.5,105.583,17.494,157.524,31.261,156.229,41.409,291.25,122.354,412.351,204.824,79.349,54.037,158.086,112.661,194.479,178.386" transform="translate(-2010.885 -2313.682)" fill="none" stroke="#36d0fc" stroke-linecap="round" stroke-miterlimit="10" stroke-width="3" opacity="0.5"/><path d="M2075.228,2754.745c124.894,109.346,321.14,190.4,511.655,211.323,80.143,8.8,158.055,7.519,237.541,12.839,80.334,5.376,161.909,17.472,243.194,30.589,52.665,8.5,105.584,17.495,157.525,31.261,156.228,41.409,291.251,122.354,412.351,204.824,79.348,54.037,158.085,112.661,194.478,178.386" transform="translate(-2075.228 -2300.787)" fill="none" stroke="#36d0fc" stroke-linecap="round" stroke-miterlimit="10" stroke-width="3" opacity="0.5"/></g></g></g></svg>