<svg xmlns="http://www.w3.org/2000/svg" width="79.539" height="55.433" viewBox="0 0 79.539 55.433"><g transform="translate(-20.12 -379.405)"><path d="M-5961.593,2179.055c1.385-1.347,8.034-3.148,9.836,20.4,0,0,5.833.095,6.11,8.685l9.323,7.769s-7.424-3.986-12.344-3.015-5.194,4.607-7.337,6.9c-.268.708-6.907-.443-7.112.858.277.139-26.322.831-26.322.831l-22.3-.831s-2.632,0-2.771-1.662a8.826,8.826,0,0,1,1.939-5.265c-1.939-2.632-3.464-9.836,0-12.745.277-.139,0-1.524,0-1.524h-1.939s0-3.186,2.771-3.048,34.219,0,34.219,0,2.216,0,2.216,3.048a11.875,11.875,0,0,0-2.216,0v2.355s-8.838,4.071-5.37,9.873c1.7,2.459,1.352,7.721,12.851,5.643.416,0,9.005.554,8.451-4.433s-3.464-17.179,2.909-18.98C-5958.546,2193.918-5966.719,2182.757-5961.593,2179.055Z" transform="translate(6034.76 -1797.389)" fill="#a683fe"/><path d="M74.547,406.032c0-10.7-6.654-10.644-6.654-10.644" transform="translate(16.498 5.352)" fill="none" stroke="#48269e" stroke-miterlimit="10" stroke-width="2"/><path d="M67.376,389.941l4.845,1.385v-6.852l-5.811,1.152" transform="translate(15.968 1.448)" fill="none" stroke="#6b38ea" stroke-miterlimit="10" stroke-width="2"/><g transform="translate(22.503 380.429)"><path d="M61.707,413.294a11.208,11.208,0,1,0,21.191-5.56" transform="translate(-8.218 -370.66)" fill="none" stroke="#48269e" stroke-miterlimit="10" stroke-width="2"/><path d="M61.7,411.292c0,.08-.007.16-.007.242,0,.163.005.325.012.487" transform="translate(-8.221 -369.387)" fill="none" stroke="#48269e" stroke-miterlimit="10" stroke-width="2"/><circle cx="2.077" cy="2.077" r="2.077" transform="translate(62.609 40.069)" fill="none" stroke="#48269e" stroke-miterlimit="10" stroke-width="2"/><path d="M41,412.658c0-.1.007-.2.007-.3a11.177,11.177,0,0,0-.472-3.223" transform="translate(-15.793 -370.159)" fill="none" stroke="#48269e" stroke-miterlimit="10" stroke-width="2"/><path d="M24.4,411c-.014.229-.023.459-.023.691a11.207,11.207,0,0,0,22.41.3" transform="translate(-21.575 -369.491)" fill="none" stroke="#48269e" stroke-miterlimit="10" stroke-width="2"/><path d="M31.224,411a2.052,2.052,0,0,0-.126.691A2.077,2.077,0,1,0,35.125,411" transform="translate(-19.169 -369.491)" fill="none" stroke="#48269e" stroke-miterlimit="10" stroke-width="2"/><line x2="3.901" transform="translate(12.055 41.51)" fill="none" stroke="#6b38ea" stroke-miterlimit="10" stroke-width="2"/><path d="M34.064,411h6.052l.062,0" transform="translate(-18.108 -369.492)" fill="none" stroke="#6b38ea" stroke-miterlimit="10" stroke-width="2"/><path d="M38.567,411.666a2.359,2.359,0,0,0,1.9-1.022,7.385,7.385,0,0,0,.77-1.507" transform="translate(-16.497 -370.159)" fill="none" stroke="#6b38ea" stroke-miterlimit="10" stroke-width="2"/><line x1="9.235" transform="translate(2.82 41.51)" fill="none" stroke="#6b38ea" stroke-miterlimit="10" stroke-width="2"/><path d="M84.615,410.858l-.03-1.451a102.116,102.116,0,0,0-1.963-20.76c-1.9-8.482-5.033-8.991-7.38-7.658a4.333,4.333,0,0,0-1.527,5.39l3.9,8.866a5.724,5.724,0,0,0-3.457,4.236,10.435,10.435,0,0,0-.267,3.278l.759,11.027v.009a4.259,4.259,0,0,1-2.84,4.2c-3.507,1.361-11.852,1.236-14.087.147-2.179-1.062-4.68-2.884-4.346-7.085a8.367,8.367,0,0,1,4.679-7.351,1.3,1.3,0,0,0,.061-2.3H27.777a5.358,5.358,0,0,0-5.309,4.808h0s-.948,6.842,1.868,9.143" transform="translate(-22.312 -380.429)" fill="none" stroke="#48269e" stroke-miterlimit="10" stroke-width="2"/><path d="M40.877,411.73l.424.134H69.16" transform="translate(-15.67 -369.231)" fill="none" stroke="#48269e" stroke-miterlimit="10" stroke-width="2"/><path d="M24.335,406.154a17.807,17.807,0,0,0-1.777,2.961,2.547,2.547,0,0,0,2.319,3.62h.255" transform="translate(-22.312 -371.226)" fill="none" stroke="#6b38ea" stroke-miterlimit="10" stroke-width="2"/><path d="M46.52,412.179a10.307,10.307,0,0,0-.373-7.6c-.527-1.016-4.276-6.413-14.125-2.595a18.214,18.214,0,0,0-8.22,6.151" transform="translate(-21.779 -373.202)" fill="none" stroke="#6b38ea" stroke-miterlimit="10" stroke-width="2"/><path d="M62.282,414.35h2.9l.017-.1.224-1.054a6.369,6.369,0,0,1,1.734-2.991,9.548,9.548,0,0,1,2.733-1.738c.43-.19.87-.353,1.314-.5a14.341,14.341,0,0,1,11.18.893q.562.3,1.094.654c.272.179.536.365.79.563a.4.4,0,0,0,.608-.486,13.091,13.091,0,0,0-11.848-6.85,14.749,14.749,0,0,0-1.928.128c-6.284.832-11.092,5.662-11.016,11.476a4.291,4.291,0,0,0,.673,0h1.523" transform="translate(-8.798 -372.445)" fill="none" stroke="#6b38ea" stroke-miterlimit="10" stroke-width="2"/></g><line x1="7.283" transform="translate(70.715 385.279)" fill="none" stroke="#6b38ea" stroke-miterlimit="10" stroke-width="2"/><path d="M0,0H.843A2.356,2.356,0,0,1,3.2,2.356V36.99a2.138,2.138,0,0,1-2.138,2.138H0a0,0,0,0,1,0,0V0A0,0,0,0,1,0,0Z" transform="translate(22.503 401.375) rotate(-90)" fill="none" stroke="#6b38ea" stroke-miterlimit="10" stroke-width="2"/></g></svg>