<svg xmlns="http://www.w3.org/2000/svg" width="66.858" height="78.609" viewBox="0 0 66.858 78.609"><g transform="translate(-1464.565 -2132.245)"><path d="M-91.577,249.968-123.57,236l-31.994,13.968a61.837,61.837,0,0,0,6.1,32.823,62.124,62.124,0,0,0,25.895,26.795,62.115,62.115,0,0,0,25.895-26.795A61.829,61.829,0,0,0-91.577,249.968Z" transform="translate(1620.427 1901.268)" fill="#a683fe"/><path d="M-22.788,254.343l-14.641,14.641-8.785-8.785-2.928,2.928,8.785,8.785,2.928,2.928,2.928-2.928,14.641-14.641Z" transform="translate(1535.261 1906.116)" fill="#6b38ea"/><path d="M-91.238,250.041-123.4,236l-32.162,14.041a62.162,62.162,0,0,0,6.131,33A62.452,62.452,0,0,0-123.4,309.973a62.443,62.443,0,0,0,26.031-26.936A62.154,62.154,0,0,0-91.238,250.041Z" transform="translate(1621.394 1897.336)" fill="none" stroke="#48269e" stroke-miterlimit="10" stroke-width="2"/></g></svg>