<svg xmlns="http://www.w3.org/2000/svg" width="80.05" height="76.736" viewBox="0 0 80.05 76.736"><g transform="translate(58.736 -337.563)"><path d="M-54.044,364.108c0,3.267-3.438,5.826-4.606,8.674-1.233,2.939-.656,7.178-2.874,9.4s-6.456,1.653-9.4,2.874c-2.847,1.168-5.406,4.606-8.674,4.606s-5.826-3.438-8.674-4.606c-2.939-1.22-7.165-.656-9.4-2.874s-1.64-6.456-2.861-9.4c-1.181-2.847-4.619-5.406-4.619-8.674s3.438-5.826,4.619-8.673c1.22-2.939.643-7.165,2.861-9.4s6.456-1.64,9.4-2.861c2.847-1.181,5.406-4.619,8.674-4.619s5.826,3.438,8.674,4.619c2.939,1.22,7.178.643,9.4,2.861s1.64,6.456,2.874,9.4C-57.482,358.282-54.044,360.841-54.044,364.108Z" transform="translate(58.343 2.436)" fill="#a683fe"/><g transform="translate(-44.721 338.563)"><path d="M-47.781,358.031c0,3.328,3.494,5.936,4.693,8.83,1.244,3,.664,7.3,2.925,9.563s6.564,1.679,9.563,2.923c2.894,1.2,5.5,4.695,8.829,4.695" transform="translate(47.781 -332.021)" fill="none" stroke="#48269e" stroke-miterlimit="10" stroke-width="2"/><path d="M-21.771,338.563c-3.327,0-5.935,3.494-8.829,4.693-3,1.244-7.3.664-9.563,2.925s-1.681,6.564-2.925,9.563c-1.2,2.893-4.693,5.5-4.693,8.829" transform="translate(47.781 -338.563)" fill="none" stroke="#48269e" stroke-miterlimit="10" stroke-width="2"/><path d="M-2.3,364.573c0-3.327-3.494-5.936-4.693-8.829-1.244-3-.664-7.3-2.925-9.563s-6.564-1.681-9.563-2.925c-2.894-1.2-5.5-4.693-8.829-4.693" transform="translate(54.323 -338.563)" fill="none" stroke="#48269e" stroke-miterlimit="10" stroke-width="2"/><path d="M-28.312,384.042c3.327,0,5.935-3.5,8.829-4.695,3-1.243,7.3-.663,9.563-2.923S-8.239,369.86-7,366.861c1.2-2.894,4.693-5.5,4.693-8.83" transform="translate(54.323 -332.021)" fill="none" stroke="#48269e" stroke-miterlimit="10" stroke-width="2"/></g><path d="M-41.111,375.739a6.9,6.9,0,0,1-1.655-3.559l-14.119,19.544,9.208.748,3.6,8.507,15.032-20.807a12.611,12.611,0,0,0-2.5-1.508C-34.548,377.42-38.851,378-41.111,375.739Z" transform="translate(0 11.296)" fill="none" stroke="#6b38ea" stroke-miterlimit="10" stroke-width="2"/><path d="M-15.249,350.636l-12.423,12.423-7.454-7.454-2.485,2.485,7.454,7.454,2.485,2.485,2.485-2.485,12.423-12.423Z" transform="translate(6.477 4.057)" fill="#6b38ea"/><path d="M-6.856,372.18a6.892,6.892,0,0,1-1.655,3.559c-2.261,2.261-6.564,1.681-9.563,2.923a12.611,12.611,0,0,0-2.5,1.508l15.032,20.807,3.6-8.507,9.208-.748Z" transform="translate(12.201 11.296)" fill="none" stroke="#6b38ea" stroke-miterlimit="10" stroke-width="2"/></g></svg>