<svg xmlns="http://www.w3.org/2000/svg" width="79.842" height="73.418" viewBox="0 0 79.842 73.418"><g transform="translate(-509.158 -4268.504)"><path d="M72.5,60.245a8.7,8.7,0,0,1-8.27,7.641q-11.369.469-23.624.446c-9.478-.033-18.579-.321-27.272-.8A8.708,8.708,0,0,1,5.29,60.6C4.156,55.143,3.142,49.359,2.31,43.266A254.122,254.122,0,0,1,0,12.27,8.691,8.691,0,0,1,7.2,3.6,242.493,242.493,0,0,1,67.182.7a8.709,8.709,0,0,1,8.041,8.576c.11,7.913-.022,16.3-.483,25.111C74.262,43.506,73.48,52.142,72.5,60.245Z" transform="matrix(0.998, -0.07, 0.07, 0.998, 509.158, 4273.754)" fill="#fff4a3"/><path d="M0,38.376v-4.8c0-5.277,8.635-9.594,19.188-9.594S38.376,28.3,38.376,33.579v4.8ZM9.594,9.594a9.594,9.594,0,1,1,9.594,9.594A9.594,9.594,0,0,1,9.594,9.594Z" transform="translate(533.382 4285.821)" fill="#6352ff"/></g></svg>