<svg xmlns="http://www.w3.org/2000/svg" width="263.966" height="250.267" viewBox="0 0 263.966 250.267"><g transform="translate(-1963.229 -965.473)"><g transform="translate(1963.229 981.473)"><path d="M1996.092,1136.846c-25.507-33.223-54.327-85.9-9.254-113.934,25.971-16.155,57.357-21.117,86.772-29.4,46.487-13.094,104.1-25.364,138.705,19.83,23.165,30.252,15.791,60.705,1.49,90.875-9.092,19.181-16.256,36.16-36,56.8-19.691,20.585-47.652,41.5-78.483,42.177-18.984.418-37.677-7.074-53.363-17.763C2026.839,1172.4,2009.941,1154.884,1996.092,1136.846Z" transform="translate(-1963.229 -997.473)" fill="#b3e9f9" opacity="0.73" style="mix-blend-mode:multiply;isolation:isolate"/></g><g transform="translate(1999.868 1076.412)"><g transform="translate(4.475)"><g transform="translate(137.328 4.245)"><path d="M2116.772,1065.285c0-.669-1.019-6.422-1.019-6.422l-13.292,6.422v9.362l13.292,3.336Z" transform="translate(-2102.462 -1058.863)" fill="#94eaff"/><path d="M2108.5,1068.422c0,5.28,2.487,9.561,5.556,9.561s5.554-4.281,5.554-9.561-2.486-9.559-5.554-9.559S2108.5,1063.142,2108.5,1068.422Z" transform="translate(-2100.762 -1058.863)" fill="#fffff6"/></g><path d="M2009.32,1106.814s-15.432,1.764-9.075,12.3Z" transform="translate(-1994.351 -1041.115)" fill="#5ba7b4"/><path d="M1995.489,1142.183c-1.4-7.186,5.888-11.791,5.888-11.791,12.025-8.488,11.791-17.683,11.791-17.683h65.315l7.31,4.007s-18.628,1.651-20.279,22.4c-.915,11.492,5.931,16.479,11.89,19.382,6.115,2.98,28.944,3.321,38.539-.4a11.654,11.654,0,0,0,7.772-11.5v-.027l-2.078-30.165a28.542,28.542,0,0,1,.732-8.965c1.917-7.581,5.719-9.6,9.457-11.592l-10.662-24.253a11.854,11.854,0,0,1,4.177-14.746c5.38-3.456,8.726,1.077,8.726,1.077l4.491,36.245h0c8.519,12.561,12.342,40.42,12.342,40.42l-12.342,6.582s-2.085,5.283-4.247,10.82a31.117,31.117,0,0,1-28.617,19.956h-55.033l-.792-3.226h-3.523a8.241,8.241,0,0,1-8.241-8.241h9.739l-4.493-18.3Z" transform="translate(-1995.309 -1055.551)" fill="#94eaff"/><path d="M2067.074,1103.1a4.86,4.86,0,0,1,3.395,1.371c2.156,2.1,6.561,5.559,9.79,2.67,4.434-3.968.466-10.618-6.3-10.035s-28.937.7-37.1-3.733-11.318-4.668-13.885-1.867,1.517,10.586,9.1,11.595Z" transform="translate(-1987.736 -1045.943)" fill="#5ba7b4"/></g><g transform="translate(0 70.142)"><g transform="translate(4.655 7.859)"><circle cx="30.664" cy="30.664" r="30.664" fill="#122834"/><circle cx="19.505" cy="19.505" r="19.505" transform="translate(11.159 11.159)" fill="#c0d5e8"/><path d="M2014.942,1141.587a5.682,5.682,0,1,0,5.681-5.681A5.681,5.681,0,0,0,2014.942,1141.587Z" transform="translate(-1989.96 -1110.924)" fill="#fff"/></g><path d="M1991.817,1148.8s3.76-24.39,30.7-34.834,37.2,4.32,38.639,7.1c2.388,4.6,5.6,18.5-3.36,27.733Z" transform="translate(-1991.817 -1110.281)" fill="#5ba7b4"/></g><g transform="translate(132.352 70.772)"><g transform="translate(5.541 7.228)"><circle cx="30.664" cy="30.664" r="30.664" fill="#122834"/><circle cx="19.505" cy="19.505" r="19.505" transform="translate(11.159 11.159)" fill="#c0d5e8"/><circle cx="5.682" cy="5.682" r="5.682" transform="translate(24.982 24.982)" fill="#fff"/></g><path d="M2130.5,1110.773c-19.7,0-35.637,14.245-35.409,31.74l.006.009a14.692,14.692,0,0,0,8.09-1.976,25.194,25.194,0,0,0,5.871-4.384c8.12-8,14.665-13.135,28.817-13.135a37.957,37.957,0,0,1,23.374,7.815,1.1,1.1,0,0,0,1.666-1.332C2157.429,1118.478,2144.982,1110.773,2130.5,1110.773Z" transform="translate(-2095.088 -1110.773)" fill="#5ba7b4"/></g></g><path d="M2100.79,1060.623l-2.907,11.315a3.1,3.1,0,0,1-3.157,1.912h0c-1.239-.077-2.016-.878-1.8-1.858l2.681-12.3Z" transform="translate(36.512 22.025)" fill="#122834"/><g transform="translate(2049.567 1003.411)"><path d="M2072.769,1014.888s-2.612-.945-3.721.67,0,5.857,0,5.857a1.426,1.426,0,0,1-1.763,0" transform="translate(-2020.265 -994.078)" fill="none" stroke="#1a1a1a" stroke-linecap="round" stroke-miterlimit="10" stroke-width="0.204"/><path d="M2066.734,1015.6a3.177,3.177,0,0,0-4.114-.67" transform="translate(-2021.578 -994.122)" fill="none" stroke="#1a1a1a" stroke-linecap="round" stroke-miterlimit="10" stroke-width="0.204"/><ellipse cx="1.052" cy="0.587" rx="1.052" ry="0.587" transform="translate(49.507 23.479) rotate(-81.001)" fill="#1a1a1a"/><ellipse cx="1.052" cy="0.587" rx="1.052" ry="0.587" transform="translate(42.957 23.479) rotate(-81.001)" fill="#1a1a1a"/><path d="M2069.365,1022.663s-2.252,2.227-5.32-.221" transform="translate(-2021.177 -991.874)" fill="none" stroke="#1a1a1a" stroke-linecap="round" stroke-miterlimit="10" stroke-width="0.204"/><path d="M2077.194,1129.071l1.309,7.949,6.057-.67-.83-9.469Z" transform="translate(-2017.474 -962.464)" fill="#fce8d7"/><path d="M2060.423,1122.426l-3.444,7.282,5.363,2.894,4.7-8.26Z" transform="translate(-2023.166 -963.718)" fill="#fce8d7"/><g transform="translate(30.683 163.045)"><path d="M2054.833,1129.951l-.2.39a1.15,1.15,0,0,0,.566,1.5l15.96,8.045.724-1.435A148.769,148.769,0,0,1,2054.833,1129.951Z" transform="translate(-2054.537 -1124.644)" fill="#e5e5e5"/><path d="M2057.3,1126.091l-2.534,5.027a148.33,148.33,0,0,0,17.053,8.5l1.372-2.722-7.755-7.07a.58.58,0,0,0-.555-.128l-2.08.615a.585.585,0,0,1-.419-.042l-3.392-1.711a.569.569,0,0,1-.306-.4l-.338-1.875a.589.589,0,0,0-.309-.406A.545.545,0,0,0,2057.3,1126.091Z" transform="translate(-2054.471 -1125.81)" fill="#989898"/><path d="M2069.605,1134.456l-2.1,4.156a15.6,15.6,0,0,0,4.318,1.432,3.934,3.934,0,0,0,.172-.378,4.421,4.421,0,0,0,.256-.779C2072.723,1136.865,2071.484,1135.4,2069.605,1134.456Z" transform="translate(-2050.883 -1123.375)" fill="#e5e5e5"/><path d="M2066.562,1132.238a2.4,2.4,0,0,0-1.6.518" transform="translate(-2051.599 -1124)" fill="none" stroke="#666" stroke-miterlimit="10" stroke-width="0.254"/><path d="M2066.084,1131.525a4.092,4.092,0,0,0-2.1.693" transform="translate(-2051.876 -1124.201)" fill="none" stroke="#666" stroke-miterlimit="10" stroke-width="0.254"/><path d="M2065.342,1130.833a3.038,3.038,0,0,0-2.107,1.061" transform="translate(-2052.087 -1124.395)" fill="none" stroke="#666" stroke-miterlimit="10" stroke-width="0.254"/></g><path d="M2104.594,1061.5c-1.107.771-1.93-.259-2.548-1.211a4.56,4.56,0,0,0-.747.928c-.077.258,2.781,3.569,1.474,4.392s-3-2.866-3.378-2.575,1.768,2.575,1.065,3.3-2.216-.72-2.42-1.8c-.395.687-3.176,2.06-5.2,1.494a9.818,9.818,0,0,0-3.722-.31l2.246-5.783a11.432,11.432,0,0,0,2.781-.128,39.472,39.472,0,0,0,4.195-.824c.132-.065.373-.156.673-.272l0,0a16.911,16.911,0,0,1,3.428-1.815c.086-.033.137-.049.154-.055h.007C2103.559,1056.768,2105.612,1060.789,2104.594,1061.5Z" transform="translate(-2014.116 -982.191)" fill="#fce8d7"/><path d="M2106.308,1038.387a.757.757,0,0,1-.355.519.378.378,0,0,0-.04.027l-.035.019c-.715.453-6.485,4.11-7.469,4.925-1.051.868-3.068.236-3.068.236l-1.756,1.88-3.94-5.06s.265-.235,1.27-1.248.489-1.675,1.73-4.009c1.958-3.168,3.836-3.9,4.309-3.61s-.135,1.124-.473,1.694a7.217,7.217,0,0,0-.562,1.8c1.879-2.212,5.822-4.375,6.7-4.841l.015-.009.052-.031c.033-.017.058-.03.075-.037l.022-.01.011-.006a.728.728,0,0,1,.391-.04.759.759,0,0,1,.624.875.74.74,0,0,1-.216.414l-.009.006-.019.017-.023.018c-.026.019-.06.044-.1.075l-.009,0c-.694.522-3.385,2.58-3.214,2.925.188.386,4.6-2.521,4.884-2.709l.015-.011a.759.759,0,0,1,.882,1.236l-.078.051c-.568.387-4.041,2.743-3.879,3.009.175.282,3.369-1.706,3.559-1.824l.009-.006a.758.758,0,1,1,.842,1.259l-.072.045-.016.008c-.565.334-3.692,2.213-3.485,2.485s1.97-.68,2.267-.843l.022-.013.009,0,.009-.006a.769.769,0,0,1,.5-.084A.759.759,0,0,1,2106.308,1038.387Z" transform="translate(-2013.967 -989.583)" fill="#fce8d7"/><g transform="translate(7.641 91.012)"><path d="M2036.558,1069.944c22.728-1.086,64.339-.791,77.684,20.347-11.956,16.244-34.247,37.915-42.659,54.168-2.362-1.947-4.736-3.9-7.095-5.84a205.149,205.149,0,0,1,20.309-42.508c-8.7,1.508-43.641,6.112-46.833-3.557C2035.4,1084.787,2037.326,1077.647,2036.558,1069.944Z" transform="translate(-2036.558 -1069.605)" fill="#4962e0"/></g><path d="M2035.752,1072.532s-8.813,10.929,3.679,22.441c8.062,7.427,19.561,10.294,55.181,8.441,0,0-8.442,21-5.56,44.474l8.648-1.853,18.735-56.21S2102.6,1071.912,2035.752,1072.532Z" transform="translate(-2029.994 -977.773)" fill="#6d7ccc"/><path d="M2058.943,1021.253a19.062,19.062,0,0,0,2.462,4.894c2.552,4.024,5.317,8.042,6.689,12.3a5.591,5.591,0,0,1,.361,2.4c-.215,1.626-1.771,2.914-3.673,3.569a18.541,18.541,0,0,1-6.3.711,51.366,51.366,0,0,1-6.2-.51,9.38,9.38,0,0,1-3.809-1.166,5.78,5.78,0,0,1-2.243-3.7,35.047,35.047,0,0,1,1.3-21.746,9.56,9.56,0,0,1,1.261-2.375c1.811-2.336,5.788-3.431,9.486-2.741,2.968.552,1.849,1.266,1.123,2.8A7.937,7.937,0,0,0,2058.943,1021.253Z" transform="translate(-2026.512 -994.622)" fill="#301308"/><path d="M2100.394,1040.286l4.773,5.648s-20.008,23.033-20.484,22.637c-4.494-3.737-31.779-30.884-31.779-30.884l10.669-9.62c2.823,2.93,5.717,6.125,8.629,9.6,4.682,5.581,10.1,11.37,13.558,16.525C2090.638,1049.362,2095.516,1045.112,2100.394,1040.286Z" transform="translate(-2024.314 -990.29)" fill="#fff"/><path d="M2061.436,1026.1a11.745,11.745,0,0,1,10.753,10.928l1.959,45.839c.058,1.343-12.173,3.277-18.659,2.626a66,66,0,0,1-16.011-3.66,2.464,2.464,0,0,1-1.67-.934,2.135,2.135,0,0,1-.368-1.8l11.246-44.482A11.742,11.742,0,0,1,2061.436,1026.1Z" transform="translate(-2028.687 -990.863)" fill="#fdeb6b"/><path d="M2060.554,1027.4a22.38,22.38,0,0,1,0,4.006c-.227,1.759,9.962,10.058,6.058,44.463h8.006s-5.1-35.807-7.826-40.542A36.214,36.214,0,0,0,2060.554,1027.4Z" transform="translate(-2022.161 -990.479)" fill="#fff"/><path d="M2071.513,1056.141c-.788-4.592-1.51-9.207-2.545-13.76a34.672,34.672,0,0,0-2.3-7.053,25.628,25.628,0,0,0-4.348-6.118c-.564-.627-1.147-1.241-1.766-1.814" transform="translate(-2022.161 -990.479)" fill="none" stroke="#1a1a1a" stroke-miterlimit="10" stroke-width="0.204"/><path d="M2075.607,1022.084c-1.529,7.681-4.871,11.629-10.809,10.444a12.341,12.341,0,0,1-2.2-.664,11.5,11.5,0,0,1-7.211-10.046,14.154,14.154,0,0,1,.261-3.723c1.53-7.676,7.42-12.1,13.362-10.918S2077.142,1014.408,2075.607,1022.084Z" transform="translate(-2023.624 -996.227)" fill="#fbe9d5"/><path d="M2066.483,1018.605l-3.655,12.726a5.212,5.212,0,0,1-10.019-2.877l3.655-12.726Z" transform="translate(-2024.398 -993.765)" fill="#fbe9d5"/><path d="M2063.208,1028.632l-.564,1.911a20.036,20.036,0,0,1-9.467-4.62l2.2-7.461.615.124A11.5,11.5,0,0,0,2063.208,1028.632Z" transform="translate(-2024.237 -992.995)" fill="#ddb198" opacity="0.25"/><path d="M2063.528,1015.935l4.511,1.154.62-5.189,1.171,6,3.014.4.063-4.482,1.137,4.743a9.325,9.325,0,0,0,3.235-.181l.309-2.814.911,4,4.7-.956c.408-.083-.8-6.518-.892-6.939-1.057-4.678-3.109-9.689-7.644-11.943a13.547,13.547,0,0,0-7.47-1.023,29.322,29.322,0,0,0-7.5,1.693,14.15,14.15,0,0,0-8.135,7.919,34.509,34.509,0,0,0-2.116,9.1c.1,3.6,2.336,8.2,2.336,8.2l3.959-1.611,4.537-5.023.426,1.27.85.063Z" transform="translate(-2025.287 -998.591)" fill="#301308"/><path d="M2059.973,1014.757c0,1.952-1.62,5.009-3.572,5.009s-3.5-1.441-3.5-5.009a3.535,3.535,0,1,1,7.069,0Z" transform="translate(-2024.314 -995.034)" fill="#fbe9d5"/><path d="M2064.949,1035.093s2.2-1.647-1.235-3.705-4.118-3.021-4.393-5.353c0,0-13.452-.55-24.433,41.316-7.274,30.2-3.431,31.3-1.921,32.668s26.079-.824,28.413-3.706S2072.087,1056.918,2064.949,1035.093Z" transform="translate(-2030.596 -990.862)" fill="#fff"/><path d="M2105.132,1066.042l-2.984,7.206s-26.047,3.19-30.989,2.779c-3.6-2.916-23.194-30.206-25.344-33.211-.129-.177-.2-.269-.2-.269a6.59,6.59,0,0,1,5.462-10.271h0a6.567,6.567,0,0,1,4.86,2.142l.349.414,23.617,28.018Z" transform="translate(-2026.682 -989.105)" fill="#fff"/><path d="M2062.392,1064.956c-6.861-9.022-15.215-20.661-16.576-22.564-.129-.177-.2-.269-.2-.269a6.59,6.59,0,0,1,.806-8.341" transform="translate(-2026.682 -988.681)" fill="none" stroke="#1a1a1a" stroke-miterlimit="10" stroke-width="0.204"/><path d="M2065.532,1048.3l8.456,10.032,10.26,1.3" transform="translate(-2020.758 -984.591)" fill="none" stroke="#1a1a1a" stroke-miterlimit="10" stroke-width="0.204"/><line x2="5.527" y2="6.557" transform="translate(37.087 54.594)" fill="none" stroke="#1a1a1a" stroke-miterlimit="10" stroke-width="0.204"/><line x2="1.45" y2="1.72" transform="translate(34.261 51.241)" fill="none" stroke="#1a1a1a" stroke-miterlimit="10" stroke-width="0.204"/><line x2="4.648" y2="5.514" transform="translate(29.613 45.727)" fill="none" stroke="#1a1a1a" stroke-miterlimit="10" stroke-width="0.204"/><path d="M2044.15,1085.645c6.25-.752,12.311-1.961,13.413-3.322.531-.655,1.373-3.048,2.275-6.61" transform="translate(-2026.779 -976.873)" fill="none" stroke="#1a1a1a" stroke-miterlimit="10" stroke-width="0.204"/><rect width="16.383" height="4.112" transform="translate(8.689 95.277) rotate(-30)" fill="#f8f8ff"/><path d="M2042.975,1073.966l-3.876,2.238-.546-.946" transform="translate(-2028.355 -977.365)" fill="none" stroke="#1a1a1a" stroke-miterlimit="10" stroke-width="0.204"/><path d="M2050.742,1069.7l-.939.542-5.178,2.989" transform="translate(-2026.646 -978.567)" fill="none" stroke="#1a1a1a" stroke-miterlimit="10" stroke-width="0.204"/><line x2="1.195" y2="2.07" transform="translate(23.387 87.969)" fill="none" stroke="#1a1a1a" stroke-miterlimit="10" stroke-width="0.204"/><path d="M2047.04,1067.582l1.8-1.041.51.883" transform="translate(-2025.965 -979.456)" fill="none" stroke="#1a1a1a" stroke-miterlimit="10" stroke-width="0.204"/><line y1="1.609" x2="2.787" transform="translate(18.287 88.127)" fill="none" stroke="#1a1a1a" stroke-miterlimit="10" stroke-width="0.204"/><line y1="3.599" x2="6.233" transform="translate(12.054 89.736)" fill="none" stroke="#1a1a1a" stroke-miterlimit="10" stroke-width="0.204"/><g transform="translate(59.39 171.443)"><path d="M2077.583,1138.366l.064.411a1.083,1.083,0,0,0,1.248.846l16.534-2.572-.236-1.512A136.884,136.884,0,0,1,2077.583,1138.366Z" transform="translate(-2076.754 -1131.469)" fill="#e5e5e5"/><path d="M2076.942,1133.964l.824,5.3a136.136,136.136,0,0,0,17.609-2.826l-.446-2.867-9.762-1.2a.539.539,0,0,0-.493.206l-1.243,1.625a.531.531,0,0,1-.342.2l-3.514.547a.526.526,0,0,1-.452-.141l-1.283-1.267a.549.549,0,0,0-.458-.145A.513.513,0,0,0,2076.942,1133.964Z" transform="translate(-2076.937 -1132.364)" fill="#989898"/><path d="M2090.976,1133.322l.682,4.378a14.373,14.373,0,0,0,4.065-1.274c-.021-.135-.045-.263-.077-.387a4.475,4.475,0,0,0-.231-.746C2094.665,1133.467,2092.923,1133.018,2090.976,1133.322Z" transform="translate(-2072.983 -1132.118)" fill="#e5e5e5"/><path d="M2087.737,1133.2a2.261,2.261,0,0,0-.929,1.283" transform="translate(-2074.157 -1132.128)" fill="none" stroke="#666" stroke-miterlimit="10" stroke-width="0.24"/><path d="M2086.963,1132.973a3.872,3.872,0,0,0-1.215,1.7" transform="translate(-2074.455 -1132.192)" fill="none" stroke="#666" stroke-miterlimit="10" stroke-width="0.24"/><path d="M2085.975,1132.848a2.888,2.888,0,0,0-1.02,1.987" transform="translate(-2074.678 -1132.227)" fill="none" stroke="#666" stroke-miterlimit="10" stroke-width="0.24"/></g><path d="M2070.178,1097.131s10.745-.108,13.89-.506c0,0-2.836,8.451-3.664,12.535" transform="translate(-2019.45 -970.984)" fill="none" stroke="#1a1a1a" stroke-miterlimit="10" stroke-width="0.204"/><path d="M2094.739,1035.467s1.076,1.6-.587,4.029" transform="translate(-2012.699 -988.206)" fill="none" stroke="#1a1a1a" stroke-miterlimit="10" stroke-width="0.204"/><path d="M2099.183,1060.556s-1.169-1.388-1.858-1.388h-.691" transform="translate(-2011.999 -981.532)" fill="none" stroke="#1a1a1a" stroke-miterlimit="10" stroke-width="0.204"/><path d="M2058.03,1073.376s26.1,1.887,41.262,9.524" transform="translate(-2022.87 -977.531)" fill="none" stroke="#1a1a1a" stroke-miterlimit="10" stroke-width="0.204"/><path d="M2072.542,1014.888s-2.611-.945-3.72.67,0,5.857,0,5.857a1.425,1.425,0,0,1-1.762,0" transform="translate(-2020.328 -994.078)" fill="none" stroke="#1a1a1a" stroke-linecap="round" stroke-miterlimit="10" stroke-width="0.204"/><path d="M2066.508,1015.6a3.179,3.179,0,0,0-4.115-.67" transform="translate(-2021.642 -994.122)" fill="none" stroke="#1a1a1a" stroke-linecap="round" stroke-miterlimit="10" stroke-width="0.204"/><ellipse cx="1.052" cy="0.587" rx="1.052" ry="0.587" transform="translate(49.217 23.479) rotate(-81.001)" fill="#1a1a1a"/><ellipse cx="1.052" cy="0.587" rx="1.052" ry="0.587" transform="translate(42.667 23.48) rotate(-81.001)" fill="#1a1a1a"/><path d="M2069.139,1022.663s-2.252,2.227-5.32-.221" transform="translate(-2021.24 -991.874)" fill="none" stroke="#1a1a1a" stroke-linecap="round" stroke-miterlimit="10" stroke-width="0.204"/></g><g transform="translate(2073.129 1000.972)"><path d="M2084.2,1014.988l-20.762-3.025-4.446,18.879s-14.682-7.88-8.478-24.12S2082.391,994.458,2084.2,1014.988Z" transform="translate(-2048.981 -996.687)" fill="#5ba7b4"/><path d="M2052.738,1016.376a1.872,1.872,0,1,0,1.872-1.872A1.873,1.873,0,0,0,2052.738,1016.376Z" transform="translate(-2047.923 -991.67)" fill="#fff"/></g></g></svg>