<svg xmlns="http://www.w3.org/2000/svg" xmlns:xlink="http://www.w3.org/1999/xlink" width="292" height="226.737" viewBox="0 0 292 226.737"><defs><clipPath id="a"><rect width="292" height="209" transform="translate(-8352.563 2246.183)" fill="none" stroke="#707070" stroke-width="1"/></clipPath></defs><g transform="translate(14 16)"><path d="M1996.092,1136.846c-25.507-33.223-54.327-85.9-9.254-113.934,25.971-16.155,57.357-21.117,86.772-29.4,46.487-13.094,104.1-25.364,138.705,19.83,23.165,30.252,15.791,60.705,1.49,90.875-9.092,19.181-16.256,36.16-36,56.8-19.691,20.585-47.652,41.5-78.483,42.177-18.984.418-37.677-7.074-53.363-17.763C2026.839,1172.4,2009.941,1154.884,1996.092,1136.846Z" transform="translate(-1963.229 -997.473)" fill="#b3e9f9" opacity="0.73" style="mix-blend-mode:multiply;isolation:isolate"/><g transform="translate(8338.563 -2244.446)" clip-path="url(#a)"><g transform="translate(-8363.07 2319.208)"><circle cx="4.783" cy="4.783" r="4.783" transform="translate(125.752 29.978)" fill="#94eaff"/><path d="M2919.827,1472.474s3.564-1.291,5.079.914,0,8,0,8a1.944,1.944,0,0,0,2.405,0" transform="translate(-2698.923 -1444.067)" fill="none" stroke="#1a1a1a" stroke-linecap="round" stroke-miterlimit="10" stroke-width="0.5"/><path d="M2908.375,1473.278a4.337,4.337,0,0,1,5.616-.914" transform="translate(-2677.442 -1443.958)" fill="none" stroke="#1a1a1a" stroke-linecap="round" stroke-miterlimit="10" stroke-width="0.5"/><ellipse cx="1.436" cy="0.802" rx="1.436" ry="0.802" transform="translate(223.41 32.301) rotate(-98.999)" fill="#1a1a1a"/><ellipse cx="1.436" cy="0.802" rx="1.436" ry="0.802" transform="translate(232.351 32.301) rotate(-98.999)" fill="#1a1a1a"/><path d="M2911.875,1491.613s3.074,3.041,7.261-.3" transform="translate(-2685.082 -1449.586)" fill="none" stroke="#1a1a1a" stroke-linecap="round" stroke-miterlimit="10" stroke-width="0.5"/><path d="M2954.2,1750.638l-1.787,10.85-8.268-.914,1.133-12.925Z" transform="translate(-2743.147 -1523.214)" fill="#fce8d7"/><path d="M2903.571,1736.713l4.7,9.941-7.32,3.95-6.42-11.275Z" transform="translate(-2661.855 -1520.073)" fill="#fce8d7"/><g transform="translate(221.381 222.56)"><path d="M2911.815,1755.182l.269.532a1.569,1.569,0,0,1-.773,2.041l-21.786,10.981-.988-1.96C2895.033,1763.956,2905.158,1759.325,2911.815,1755.182Z" transform="translate(-2882.911 -1747.938)" fill="#e5e5e5"/><path d="M2910.8,1745.4l3.458,6.861c-6.655,4.145-16.781,8.777-23.276,11.6l-1.873-3.716,10.587-9.648a.793.793,0,0,1,.757-.177l2.838.84a.784.784,0,0,0,.573-.058l4.63-2.334a.773.773,0,0,0,.419-.547l.462-2.56a.8.8,0,0,1,.422-.554A.742.742,0,0,1,2910.8,1745.4Z" transform="translate(-2885.355 -1745.019)" fill="#989898"/><path d="M2924.132,1766.24l2.859,5.673a21.308,21.308,0,0,1-5.894,1.954c-.088-.176-.168-.344-.233-.516a6,6,0,0,1-.351-1.064C2919.875,1769.528,2921.567,1767.533,2924.132,1766.24Z" transform="translate(-2920.378 -1751.114)" fill="#e5e5e5"/><path d="M2914.137,1760.793a3.275,3.275,0,0,1,2.176.708" transform="translate(-2905.252 -1749.549)" fill="none" stroke="#666" stroke-miterlimit="10" stroke-width="0.625"/><path d="M2911.732,1759.045a5.583,5.583,0,0,1,2.863.947" transform="translate(-2901.818 -1749.048)" fill="none" stroke="#666" stroke-miterlimit="10" stroke-width="0.625"/><path d="M2909.885,1757.348a4.144,4.144,0,0,1,2.876,1.448" transform="translate(-2898.668 -1748.56)" fill="none" stroke="#666" stroke-miterlimit="10" stroke-width="0.625"/></g><path d="M2973.792,1582.084c1.51,1.053,2.634-.352,3.478-1.652a6.2,6.2,0,0,1,1.019,1.266c.1.352-3.8,4.872-2.012,6s4.1-3.912,4.613-3.515-2.413,3.515-1.454,4.5,3.024-.982,3.3-2.458c.54.937,4.335,2.81,7.1,2.038a13.436,13.436,0,0,1,5.081-.423l-3.065-7.892a15.624,15.624,0,0,1-3.8-.176,53.805,53.805,0,0,1-5.726-1.124c-.179-.09-.51-.214-.918-.371,0,0,0,0,0,0a23.132,23.132,0,0,0-4.68-2.477c-.116-.045-.187-.068-.21-.075,0,0,0,0-.007,0C2975.205,1575.627,2972.4,1581.117,2973.792,1582.084Z" transform="translate(-2804.724 -1473.828)" fill="#fce8d7"/><path d="M2975.4,1521.941a1.032,1.032,0,0,0,.483.709.491.491,0,0,1,.056.036.39.39,0,0,0,.046.026c.977.62,8.852,5.609,10.2,6.722,1.434,1.185,4.188.321,4.188.321l2.4,2.567,5.376-6.906s-.361-.319-1.733-1.7-.667-2.286-2.362-5.471c-2.672-4.325-5.236-5.321-5.881-4.928s.185,1.535.645,2.312a9.853,9.853,0,0,1,.769,2.463c-2.565-3.021-7.948-5.974-9.145-6.609-.009-.006-.016-.009-.021-.011l-.072-.041-.1-.051c-.012-.005-.021-.011-.029-.014l-.017-.009a1.016,1.016,0,0,0-.534-.055,1.038,1.038,0,0,0-.853,1.2,1.021,1.021,0,0,0,.3.566l.013.009c0,.006.017.012.026.022s.018.016.031.025c.035.025.082.059.139.1,0,0,.008,0,.012,0,.948.712,4.62,3.521,4.387,3.993-.257.526-6.275-3.441-6.667-3.7l-.021-.016a1.036,1.036,0,0,0-1.2,1.686l.107.07c.776.527,5.516,3.743,5.3,4.107-.239.386-4.6-2.327-4.858-2.49l-.013-.009a1.039,1.039,0,0,0-1.632,1.01,1.04,1.04,0,0,0,.484.709l.1.06a.064.064,0,0,1,.021.011c.771.456,5.042,3.021,4.758,3.391s-2.69-.929-3.1-1.151c-.009-.006-.021-.011-.03-.018s-.008-.006-.012-.006-.009,0-.014-.009a1.047,1.047,0,0,0-.677-.115A1.035,1.035,0,0,0,2975.4,1521.941Z" transform="translate(-2808.879 -1455.322)" fill="#fce8d7"/><g transform="translate(176.102 124.233)"><path d="M2950.45,1607.53c-31.024-1.48-87.824-1.078-106.04,27.775,16.32,22.173,46.747,51.755,58.231,73.94,3.223-2.657,6.463-5.328,9.684-7.972a280.093,280.093,0,0,0-27.723-58.026c11.873,2.06,59.571,8.345,63.928-4.854C2952.03,1627.793,2949.4,1618.046,2950.45,1607.53Z" transform="translate(-2844.41 -1607.068)" fill="#4962e0"/></g><path d="M2945.16,1614.237s12.031,14.919-5.023,30.631c-11,10.138-26.7,14.053-75.322,11.523,0,0,11.523,28.667,7.589,60.707l-11.8-2.53-25.576-76.727S2853.912,1613.391,2945.16,1614.237Z" transform="translate(-2660.447 -1484.888)" fill="#6d7ccc"/><path d="M2878.4,1479.058a26.011,26.011,0,0,1-3.361,6.682c-3.482,5.493-7.258,10.977-9.13,16.789a7.649,7.649,0,0,0-.493,3.279c.294,2.22,2.418,3.979,5.015,4.872a25.272,25.272,0,0,0,8.592.972,70.37,70.37,0,0,0,8.46-.7,12.808,12.808,0,0,0,5.2-1.592,7.89,7.89,0,0,0,3.061-5.055,47.827,47.827,0,0,0-1.778-29.683,13.041,13.041,0,0,0-1.72-3.242c-2.472-3.189-7.9-4.683-12.95-3.742-4.051.754-2.525,1.729-1.533,3.823A10.832,10.832,0,0,1,2878.4,1479.058Z" transform="translate(-2630.091 -1442.707)" fill="#301308"/><path d="M2891.045,1521.8l-6.515,7.709s27.312,31.441,27.961,30.9c6.135-5.1,43.379-42.158,43.379-42.158l-14.563-13.131c-3.855,4-7.8,8.36-11.779,13.1-6.389,7.618-13.789,15.519-18.506,22.556C2904.362,1534.186,2897.7,1528.384,2891.045,1521.8Z" transform="translate(-2702.323 -1453.551)" fill="#fff"/><path d="M2863.769,1500.217c-8.083.831-14.347,7.2-14.677,14.917l-2.676,62.572c-.079,1.833,16.616,4.473,25.469,3.584a90.079,90.079,0,0,0,21.856-5,3.365,3.365,0,0,0,2.278-1.277,2.9,2.9,0,0,0,.5-2.463l-15.35-60.719C2879.279,1504.345,2871.852,1499.386,2863.769,1500.217Z" transform="translate(-2615.899 -1452.118)" fill="#fdeb6b"/><path d="M2922.494,1503.472a30.528,30.528,0,0,0,0,5.468c.31,2.4-13.6,13.73-8.27,60.693H2903.3s6.968-48.876,10.683-55.341A49.445,49.445,0,0,1,2922.494,1503.472Z" transform="translate(-2682.33 -1453.079)" fill="#fff"/><path d="M2903.3,1542.71c1.076-6.269,2.062-12.569,3.475-18.784a47.425,47.425,0,0,1,3.145-9.627,35,35,0,0,1,5.934-8.352c.771-.855,1.565-1.693,2.41-2.475" transform="translate(-2678.092 -1453.079)" fill="none" stroke="#1a1a1a" stroke-miterlimit="10" stroke-width="0.5"/><path d="M2891.19,1473.985c2.089,10.485,6.65,15.874,14.755,14.255a16.827,16.827,0,0,0,3.008-.905,15.691,15.691,0,0,0,9.843-13.714,19.32,19.32,0,0,0-.356-5.082c-2.088-10.478-10.129-16.522-18.24-14.9S2889.095,1463.507,2891.19,1473.985Z" transform="translate(-2669.576 -1438.689)" fill="#fbe9d5"/><path d="M2883.8,1478.761l4.989,17.372a7.114,7.114,0,0,0,13.676-3.927l-4.989-17.371Z" transform="translate(-2648.673 -1444.853)" fill="#fbe9d5"/><path d="M2885.2,1495.425l.77,2.609c2.887-.264,9.3-2.865,12.922-6.308l-3.008-10.185-.841.171A15.693,15.693,0,0,1,2885.2,1495.425Z" transform="translate(-2645.824 -1446.779)" fill="#ddb198" opacity="0.25"/><path d="M2903.017,1456.447l-6.157,1.575-.847-7.084-1.6,8.185-4.113.545-.085-6.119-1.553,6.475s-3.126.318-4.416-.246l-.422-3.842-1.245,5.465-6.418-1.306c-.556-.113,1.089-8.9,1.219-9.47,1.442-6.386,4.244-13.225,10.433-16.3a18.506,18.506,0,0,1,10.2-1.4,40.034,40.034,0,0,1,10.231,2.311,19.311,19.311,0,0,1,11.106,10.81,47.046,47.046,0,0,1,2.889,12.426c-.132,4.909-3.189,11.189-3.189,11.189l-5.4-2.2-6.193-6.855-.582,1.734-1.16.086Z" transform="translate(-2662.644 -1432.771)" fill="#301308"/><path d="M2884.529,1468.6c0,2.664,2.211,6.837,4.875,6.837s4.774-1.965,4.774-6.837a4.825,4.825,0,1,0-9.649,0Z" transform="translate(-2640.632 -1441.676)" fill="#fbe9d5"/><path d="M2833.628,1512.494s-3-2.249,1.686-5.059,5.621-4.122,6-7.307c0,0,18.362-.749,33.351,56.4,9.931,41.221,4.684,42.72,2.624,44.594s-35.6-1.124-38.785-5.059S2823.885,1542.285,2833.628,1512.494Z" transform="translate(-2587.948 -1452.118)" fill="#fff"/><path d="M2863.9,1561.542l4.073,9.837s35.555,4.354,42.3,3.792c4.913-3.979,31.662-41.232,34.6-45.335.176-.24.267-.368.267-.368a9,9,0,0,0-7.458-14.019h0a8.966,8.966,0,0,0-6.633,2.923l-.476.566-32.238,38.246Z" transform="translate(-2678.411 -1456.519)" fill="#fff"/><path d="M2863.9,1561.7c9.364-12.317,20.77-28.2,22.627-30.8.176-.24.267-.368.267-.368a9,9,0,0,0-1.1-11.384" transform="translate(-2620.069 -1457.58)" fill="none" stroke="#1a1a1a" stroke-miterlimit="10" stroke-width="0.5"/><path d="M2941.07,1554.79l-11.543,13.693-14,1.773" transform="translate(-2709.615 -1467.819)" fill="none" stroke="#1a1a1a" stroke-miterlimit="10" stroke-width="0.5"/><line x1="7.545" y2="8.951" transform="translate(234.403 74.522)" fill="none" stroke="#1a1a1a" stroke-miterlimit="10" stroke-width="0.5"/><line x1="1.979" y2="2.347" transform="translate(243.828 69.946)" fill="none" stroke="#1a1a1a" stroke-miterlimit="10" stroke-width="0.5"/><line x1="6.345" y2="7.527" transform="translate(245.806 62.419)" fill="none" stroke="#1a1a1a" stroke-miterlimit="10" stroke-width="0.5"/><path d="M2884.458,1635.615c-8.531-1.026-16.806-2.676-18.31-4.534-.724-.894-1.874-4.161-3.1-9.024" transform="translate(-2615.596 -1487.14)" fill="none" stroke="#1a1a1a" stroke-miterlimit="10" stroke-width="0.5"/><rect width="22.363" height="5.613" transform="translate(277.905 134.917) rotate(-150)" fill="#f8f8ff"/><path d="M2849.307,1617.772l5.29,3.054.746-1.292" transform="translate(-2576.691 -1485.909)" fill="none" stroke="#1a1a1a" stroke-miterlimit="10" stroke-width="0.5"/><path d="M2864.208,1607.294l1.283.741,7.068,4.081" transform="translate(-2604.527 -1482.9)" fill="none" stroke="#1a1a1a" stroke-miterlimit="10" stroke-width="0.5"/><line x1="1.631" y2="2.826" transform="translate(259.018 120.08)" fill="none" stroke="#1a1a1a" stroke-miterlimit="10" stroke-width="0.5"/><path d="M2873.292,1600.97l-2.46-1.421-.7,1.206" transform="translate(-2609.487 -1480.675)" fill="none" stroke="#1a1a1a" stroke-miterlimit="10" stroke-width="0.5"/><line x1="3.804" y1="2.196" transform="translate(263.805 120.295)" fill="none" stroke="#1a1a1a" stroke-miterlimit="10" stroke-width="0.5"/><line x1="8.508" y1="4.912" transform="translate(267.61 122.491)" fill="none" stroke="#1a1a1a" stroke-miterlimit="10" stroke-width="0.5"/><g transform="translate(180.463 234.025)"><path d="M2969.461,1772.757l-.088.561a1.479,1.479,0,0,1-1.7,1.155l-22.569-3.51.322-2.065C2951.9,1770.3,2962.135,1772.295,2969.461,1772.757Z" transform="translate(-2939.551 -1763.342)" fill="#e5e5e5"/><path d="M2968.677,1763.288l-1.125,7.228c-7.326-.46-17.557-2.458-24.037-3.858l.609-3.915,13.326-1.636a.732.732,0,0,1,.672.281l1.7,2.218a.725.725,0,0,0,.467.271l4.8.746a.717.717,0,0,0,.617-.193l1.752-1.729a.742.742,0,0,1,.624-.2A.7.7,0,0,1,2968.677,1763.288Z" transform="translate(-2937.645 -1761.103)" fill="#989898"/><path d="M2984.453,1763.36l-.93,5.977a19.659,19.659,0,0,1-5.55-1.738c.029-.185.061-.36.1-.529a5.916,5.916,0,0,1,.316-1.019C2979.417,1763.56,2981.8,1762.947,2984.453,1763.36Z" transform="translate(-2977.973 -1761.718)" fill="#e5e5e5"/><path d="M2967.743,1763.16a3.09,3.09,0,0,1,1.267,1.75" transform="translate(-2955.239 -1761.694)" fill="none" stroke="#666" stroke-miterlimit="10" stroke-width="0.59"/><path d="M2965.142,1762.6a5.264,5.264,0,0,1,1.657,2.314" transform="translate(-2951.174 -1761.533)" fill="none" stroke="#666" stroke-miterlimit="10" stroke-width="0.59"/><path d="M2963.194,1762.293a3.94,3.94,0,0,1,1.394,2.711" transform="translate(-2947.575 -1761.445)" fill="none" stroke="#666" stroke-miterlimit="10" stroke-width="0.59"/></g><path d="M2945.887,1674.079s-14.667-.147-18.96-.691c0,0,3.871,11.534,5,17.111" transform="translate(-2722.56 -1501.884)" fill="none" stroke="#1a1a1a" stroke-miterlimit="10" stroke-width="0.5"/><path d="M2986.235,1523.281s-1.47,2.178.8,5.5" transform="translate(-2805.65 -1458.769)" fill="none" stroke="#1a1a1a" stroke-miterlimit="10" stroke-width="0.5"/><path d="M2991.861,1583.347s1.6-1.894,2.537-1.894h.941" transform="translate(-2818.296 -1475.477)" fill="none" stroke="#1a1a1a" stroke-miterlimit="10" stroke-width="0.5"/><path d="M2953.434,1616.325s-35.623,2.575-56.323,13" transform="translate(-2708.854 -1485.494)" fill="none" stroke="#1a1a1a" stroke-miterlimit="10" stroke-width="0.5"/><path d="M2919.271,1472.474s3.564-1.291,5.079.914,0,8,0,8a1.945,1.945,0,0,0,2.406,0" transform="translate(-2697.972 -1444.067)" fill="none" stroke="#1a1a1a" stroke-linecap="round" stroke-miterlimit="10" stroke-width="0.5"/><path d="M2907.82,1473.278a4.337,4.337,0,0,1,5.616-.914" transform="translate(-2676.491 -1443.958)" fill="none" stroke="#1a1a1a" stroke-linecap="round" stroke-miterlimit="10" stroke-width="0.5"/><ellipse cx="1.436" cy="0.802" rx="1.436" ry="0.802" transform="translate(223.806 32.301) rotate(-98.999)" fill="#1a1a1a"/><ellipse cx="1.436" cy="0.802" rx="1.436" ry="0.802" transform="translate(232.746 32.301) rotate(-98.999)" fill="#1a1a1a"/><path d="M2911.319,1491.613s3.073,3.041,7.262-.3" transform="translate(-2684.129 -1449.586)" fill="none" stroke="#1a1a1a" stroke-linecap="round" stroke-miterlimit="10" stroke-width="0.5"/><g transform="translate(32.984 22.615)"><rect width="113.177" height="64.46" rx="12.761" transform="translate(3.998 0)" fill="#5ba7b4"/><rect width="113.177" height="64.46" rx="12.761" transform="translate(0 0)" fill="#94eaff"/><g transform="translate(21.919 24.162)"><rect width="62.777" height="18.272" rx="9.136" transform="translate(0 0)" fill="#94eaff"/></g><g transform="translate(30.059 30.613)"><path d="M3092.415,1569.782h27.958l-7.327-57.994c-.312-2.465-3.749-4.339-7.7-4.339h0c-3.948,0-7.321,1.874-7.55,4.339Z" transform="translate(-3088.143 -1507.448)" fill="#5ba7b4"/><path d="M3098.409,1569.782h27.958l-5.385-57.994c-.229-2.465-3.6-4.339-7.55-4.339h0c-3.947,0-7.385,1.874-7.7,4.339Z" transform="translate(-3098.409 -1507.448)" fill="#5ba7b4"/></g></g><path d="M0,194.728" transform="translate(0 50.585)" fill="none" stroke="#fff" stroke-width="8.536"/><g transform="translate(23.517 115.561)"><rect width="216.481" height="9.269" transform="translate(13.378 11.23)" fill="#e7e9e9"/><path d="M11.23,0H233.943a11.23,11.23,0,0,1,11.23,11.23v0a0,0,0,0,1,0,0H0a0,0,0,0,1,0,0v0A11.23,11.23,0,0,1,11.23,0Z" fill="#f1f1f1"/></g></g></g></g></svg>