<svg xmlns="http://www.w3.org/2000/svg" width="26.683" height="26.683" viewBox="0 0 26.683 26.683"><g transform="translate(-0.39 0.08)"><path d="M24.083,22.04a3.017,3.017,0,0,1-2.747,2.8c-2.518.114-5.136.174-7.847.163-3.148-.012-6.172-.117-9.06-.293A3,3,0,0,1,1.757,22.17c-.377-2-.714-4.112-.99-6.341A102.227,102.227,0,0,1,0,4.489,3.114,3.114,0,0,1,2.391,1.316,73.254,73.254,0,0,1,22.317.255a3.074,3.074,0,0,1,2.671,3.137c.036,2.895-.007,5.964-.16,9.187C24.669,15.917,24.409,19.076,24.083,22.04Z" transform="matrix(0.998, -0.07, 0.07, 0.998, 0.39, 1.664)" fill="#fff"/><path d="M8,3.9A4.1,4.1,0,1,0,12.1,8,4.095,4.095,0,0,0,8,3.9Zm0,6.768A2.666,2.666,0,1,1,10.668,8,2.671,2.671,0,0,1,8,10.665Zm5.226-6.935a.957.957,0,1,1-.957-.957A.954.954,0,0,1,13.227,3.729Zm2.716.971a4.734,4.734,0,0,0-1.292-3.352A4.765,4.765,0,0,0,11.3.056c-1.321-.075-5.279-.075-6.6,0A4.758,4.758,0,0,0,1.348,1.345,4.75,4.75,0,0,0,.056,4.7c-.075,1.321-.075,5.279,0,6.6a4.734,4.734,0,0,0,1.292,3.352A4.771,4.771,0,0,0,4.7,15.94c1.321.075,5.279.075,6.6,0a4.734,4.734,0,0,0,3.352-1.292A4.765,4.765,0,0,0,15.944,11.3c.075-1.321.075-5.276,0-6.6Zm-1.706,8.013a2.7,2.7,0,0,1-1.521,1.521c-1.053.418-3.552.321-4.715.321s-3.666.093-4.715-.321a2.7,2.7,0,0,1-1.521-1.521C1.348,11.66,1.445,9.162,1.445,8s-.093-3.666.321-4.715A2.7,2.7,0,0,1,3.287,1.762C4.34,1.345,6.838,1.441,8,1.441s3.666-.093,4.715.321a2.7,2.7,0,0,1,1.521,1.521c.418,1.053.321,3.552.321,4.715S14.655,11.664,14.238,12.713Z" transform="matrix(0.998, -0.07, 0.07, 0.998, 5.39, 6.036)" fill="#6352ff"/></g></svg>