<svg id="logo-neruonline" xmlns="http://www.w3.org/2000/svg" xmlns:xlink="http://www.w3.org/1999/xlink" width="98.993" height="49.885" viewBox="0 0 98.993 49.885">
  <defs>
    <linearGradient id="linear-gradient" x1="0.919" y1="0.824" x2="0.11" y2="-0.006" gradientUnits="objectBoundingBox">
      <stop offset="0" stop-color="#ff80ca" stop-opacity="0.82"/>
      <stop offset="0.172" stop-color="#ff9cca" stop-opacity="0.82"/>
      <stop offset="0.339" stop-color="#ffb5ca" stop-opacity="0.82"/>
      <stop offset="0.392" stop-color="#ffbcbe" stop-opacity="0.82"/>
      <stop offset="0.556" stop-color="#ffcf9e" stop-opacity="0.82"/>
      <stop offset="0.716" stop-color="#fd8" stop-opacity="0.82"/>
      <stop offset="0.866" stop-color="#ffe67a" stop-opacity="0.82"/>
      <stop offset="1" stop-color="#ffe976" stop-opacity="0.82"/>
    </linearGradient>
    <linearGradient id="linear-gradient-2" x1="0.117" y1="0.892" x2="0.886" y2="0.107" gradientUnits="objectBoundingBox">
      <stop offset="0" stop-color="#ff67ca" stop-opacity="0.82"/>
      <stop offset="0.109" stop-color="#ff7bc8" stop-opacity="0.82"/>
      <stop offset="0.332" stop-color="#ffa1c6" stop-opacity="0.82"/>
      <stop offset="0.45" stop-color="#ffb0c6" stop-opacity="0.82"/>
      <stop offset="0.575" stop-color="#ffc8b1" stop-opacity="0.82"/>
      <stop offset="0.727" stop-color="#ffde9e" stop-opacity="0.82"/>
      <stop offset="0.872" stop-color="#ffec92" stop-opacity="0.82"/>
      <stop offset="1" stop-color="#fff18f" stop-opacity="0.82"/>
    </linearGradient>
  </defs>
  <path id="Path_301" data-name="Path 301" d="M2277.1,1290.5a2,2,0,0,0-2.025-1.933l-23.941.293a2,2,0,0,0-1.959,2.266l1.333,11.628a17.807,17.807,0,0,0,6.383-1.936c1.057-.6,5.012-2.733,5.6-1.7.921,1.628-1.406,3.9-2.674,4.91a10.392,10.392,0,0,1-8.708,1.58l.393,2.944a2,2,0,0,0,2.04,1.736l16.428-.457,3.121,3.98a.77.77,0,0,0,1.374-.531l-.261-3.566,1.54-.044a2,2,0,0,0,1.945-2.069C2277.545,1303.555,2277.237,1294.495,2277.1,1290.5Zm-24.088,6.406c-.531,0-.961-.859-.961-1.917s.43-1.918.961-1.918.962.859.962,1.918S2253.544,1296.9,2253.013,1296.9Z" transform="translate(-2221.624 -1280.402)" fill-rule="evenodd" fill="url(#linear-gradient)"/>
  <path id="Path_302" data-name="Path 302" d="M2282.839,1295.154a19.821,19.821,0,0,0,6.767,1.767l.063-11.727a2.151,2.151,0,0,0-.66-1.57,2.268,2.268,0,0,0-1.606-.654l-24.6.375a1.842,1.842,0,0,0-1.86,2c.309,4.022,1.009,13.141,1.323,17.21a2.173,2.173,0,0,0,.718,1.431,2.257,2.257,0,0,0,1.51.594h22.85a1.846,1.846,0,0,0,1.9-1.8l.071-2.972a11.287,11.287,0,0,1-9.113-1.345c-1.415-.976-4.059-3.2-3.3-4.86C2277.39,1292.545,2281.688,1294.581,2282.839,1295.154Zm4.506-8.487c.544-.015,1.084.837,1.2,1.9s-.227,1.939-.772,1.954-1.084-.836-1.2-1.9S2286.8,1286.682,2287.345,1286.667Z" transform="translate(-2216.216 -1282.97)" fill-rule="evenodd" fill="url(#linear-gradient-2)"/>
  <path id="Path_303" data-name="Path 303" d="M2233.973,1308.871l5.5,8.318v-8.4a1.848,1.848,0,0,1,.352-1.227,1.187,1.187,0,0,1,.948-.41,1.224,1.224,0,0,1,.973.41,1.829,1.829,0,0,1,.356,1.227v11.1q0,1.86-1.541,1.859a2.022,2.022,0,0,1-.693-.111,1.74,1.74,0,0,1-.578-.352,3.355,3.355,0,0,1-.5-.563c-.155-.214-.308-.435-.463-.66l-5.361-8.221v8.27a1.759,1.759,0,0,1-.377,1.223,1.24,1.24,0,0,1-.963.414,1.227,1.227,0,0,1-.971-.419,1.8,1.8,0,0,1-.367-1.218v-10.888a3.061,3.061,0,0,1,.155-1.089,1.555,1.555,0,0,1,.605-.708,1.66,1.66,0,0,1,.915-.274,1.583,1.583,0,0,1,.659.126,1.561,1.561,0,0,1,.481.337,3.463,3.463,0,0,1,.425.549q.216.337.446.7Z" transform="translate(-2230.286 -1271.868)" fill="#6352ff"/>
  <path id="Path_304" data-name="Path 304" d="M2247.338,1315.831H2242.2a3.478,3.478,0,0,0,.362,1.578,2.417,2.417,0,0,0,2.219,1.377,3.175,3.175,0,0,0,.86-.111,2.794,2.794,0,0,0,.756-.347,5.608,5.608,0,0,0,.674-.5q.309-.27.8-.732a.861.861,0,0,1,.578-.174.956.956,0,0,1,.655.222.791.791,0,0,1,.25.626,1.721,1.721,0,0,1-.279.833,3.291,3.291,0,0,1-.843.915,4.789,4.789,0,0,1-1.415.727,6.091,6.091,0,0,1-1.958.289,5.241,5.241,0,0,1-3.938-1.444,5.38,5.38,0,0,1-1.406-3.917,6.512,6.512,0,0,1,.347-2.162,4.743,4.743,0,0,1,1.011-1.708,4.368,4.368,0,0,1,1.637-1.093,5.86,5.86,0,0,1,2.156-.381,5.113,5.113,0,0,1,2.643.651,4.274,4.274,0,0,1,1.651,1.679,4.431,4.431,0,0,1,.549,2.1,1.31,1.31,0,0,1-.569,1.285,3.536,3.536,0,0,1-1.6.293Zm-5.141-1.493h4.766a3.191,3.191,0,0,0-.726-2.016,2.18,2.18,0,0,0-1.662-.67,2.105,2.105,0,0,0-1.612.678,3.384,3.384,0,0,0-.766,2.008Z" transform="translate(-2226.052 -1270.644)" fill="#6352ff"/>
  <path id="Path_305" data-name="Path 305" d="M2254.174,1319.04v-.337a5.847,5.847,0,0,1-.992,1,3.676,3.676,0,0,1-1.135.6,4.619,4.619,0,0,1-1.406.2,3.625,3.625,0,0,1-1.709-.4,2.885,2.885,0,0,1-1.17-1.087,4.824,4.824,0,0,1-.49-2.407v-5.209a1.693,1.693,0,0,1,.356-1.179,1.216,1.216,0,0,1,.944-.389,1.251,1.251,0,0,1,.961.394,1.673,1.673,0,0,1,.366,1.174v4.208a6.443,6.443,0,0,0,.154,1.535,1.851,1.851,0,0,0,.553.973,1.585,1.585,0,0,0,1.083.35,2.2,2.2,0,0,0,1.251-.394,2.309,2.309,0,0,0,.858-1.03,8.321,8.321,0,0,0,.22-2.445v-3.2a1.673,1.673,0,0,1,.366-1.174,1.24,1.24,0,0,1,.953-.394,1.217,1.217,0,0,1,.944.389,1.7,1.7,0,0,1,.356,1.179v7.616a1.628,1.628,0,0,1-.341,1.126,1.217,1.217,0,0,1-1.771-.015,1.575,1.575,0,0,1-.352-1.093Z" transform="translate(-2222.489 -1270.638)" fill="#6352ff"/>
  <path id="Path_306" data-name="Path 306" d="M2257.547,1316.729v2.2a1.7,1.7,0,0,1-.375,1.2,1.251,1.251,0,0,1-.953.4,1.2,1.2,0,0,1-.934-.4,1.721,1.721,0,0,1-.366-1.194v-7.317q0-1.773,1.28-1.771a1.068,1.068,0,0,1,.944.413,2.284,2.284,0,0,1,.318,1.223,4.567,4.567,0,0,1,.967-1.223,2,2,0,0,1,1.323-.413,3.385,3.385,0,0,1,1.608.413,1.235,1.235,0,0,1,.78,1.1,1.045,1.045,0,0,1-.332.793,1.031,1.031,0,0,1-.717.312,3.253,3.253,0,0,1-.7-.178,3.261,3.261,0,0,0-.978-.178,1.424,1.424,0,0,0-.942.3,1.958,1.958,0,0,0-.569.9,6.307,6.307,0,0,0-.279,1.419q-.077.823-.077,2.008Z" transform="translate(-2218.979 -1270.638)" fill="#6352ff"/>
  <path id="Path_307" data-name="Path 307" d="M2269.819,1315.18a6.185,6.185,0,0,1-.366,2.167,4.765,4.765,0,0,1-1.059,1.7,4.645,4.645,0,0,1-1.656,1.093,5.836,5.836,0,0,1-2.165.381,5.688,5.688,0,0,1-2.147-.385,4.733,4.733,0,0,1-2.709-2.8,6.182,6.182,0,0,1-.362-2.161,6.275,6.275,0,0,1,.366-2.186,4.775,4.775,0,0,1,1.049-1.7,4.642,4.642,0,0,1,1.656-1.083,6.287,6.287,0,0,1,4.313,0,4.669,4.669,0,0,1,2.721,2.793,6.234,6.234,0,0,1,.361,2.167Zm-2.638,0a3.949,3.949,0,0,0-.708-2.5,2.3,2.3,0,0,0-1.9-.9,2.366,2.366,0,0,0-1.358.4,2.533,2.533,0,0,0-.9,1.18,5.347,5.347,0,0,0,0,3.62,2.584,2.584,0,0,0,.895,1.179,2.332,2.332,0,0,0,1.373.41,2.292,2.292,0,0,0,1.9-.9,3.93,3.93,0,0,0,.708-2.488Z" transform="translate(-2216.943 -1270.638)" fill="#6352ff"/>
  <path id="Path_308" data-name="Path 308" d="M2268.037,1313.274c0-.171-.006-.378-.019-.62s-.023-.49-.031-.74-.016-.483-.029-.7-.019-.384-.019-.5h1.182c.013.343.023.671.031.986a3.048,3.048,0,0,0,.048.611h.06a3.193,3.193,0,0,1,1.183-1.291,3.446,3.446,0,0,1,1.932-.542,3.883,3.883,0,0,1,1.735.335,2.8,2.8,0,0,1,1.056.877,3.312,3.312,0,0,1,.531,1.253,7.107,7.107,0,0,1,.148,1.459v5.422h-1.183v-5.363a5.793,5.793,0,0,0-.1-1.074,2.831,2.831,0,0,0-.344-.937,1.8,1.8,0,0,0-.69-.661,2.361,2.361,0,0,0-1.154-.247,3.374,3.374,0,0,0-1.231.226,2.67,2.67,0,0,0-1.007.69,3.371,3.371,0,0,0-.67,1.164,4.941,4.941,0,0,0-.247,1.646v4.555h-1.183v-6.547Z" transform="translate(-2213.003 -1270.345)" fill="#ff92ef"/>
  <path id="Path_309" data-name="Path 309" d="M2276.383,1306.663h1.183v14.906h-1.183v-14.906Z" transform="translate(-2209.127 -1272.095)" fill="#ff92ef"/>
  <path id="Path_310" data-name="Path 310" d="M2280.448,1312.05h1.183v9.11h-1.183v-9.11Zm-.3-3.608a.874.874,0,1,1,.257.632.857.857,0,0,1-.257-.632Z" transform="translate(-2207.397 -1271.685)" fill="#ff92ef"/>
  <path id="Path_311" data-name="Path 311" d="M2284.222,1313.274c0-.171-.006-.378-.019-.62s-.023-.49-.031-.74-.016-.483-.029-.7-.019-.384-.019-.5h1.182c.013.343.023.671.031.986a3.06,3.06,0,0,0,.048.611h.06a3.192,3.192,0,0,1,1.184-1.291,3.443,3.443,0,0,1,1.932-.542,3.883,3.883,0,0,1,1.734.335,2.785,2.785,0,0,1,1.055.877,3.28,3.28,0,0,1,.533,1.253,7.09,7.09,0,0,1,.149,1.459v5.422h-1.183v-5.363a5.793,5.793,0,0,0-.1-1.074,2.864,2.864,0,0,0-.345-.937,1.8,1.8,0,0,0-.69-.661,2.359,2.359,0,0,0-1.154-.247,3.373,3.373,0,0,0-1.231.226,2.673,2.673,0,0,0-1.007.69,3.352,3.352,0,0,0-.67,1.164,4.954,4.954,0,0,0-.247,1.646v4.555h-1.183v-6.547Z" transform="translate(-2205.574 -1270.345)" fill="#ff92ef"/>
  <path id="Path_312" data-name="Path 312" d="M2300.639,1318.1a3.985,3.985,0,0,1-1.706,1.5,5.429,5.429,0,0,1-2.238.454,4.854,4.854,0,0,1-1.892-.354,4.249,4.249,0,0,1-1.459-1,4.326,4.326,0,0,1-.937-1.517,5.544,5.544,0,0,1-.325-1.942,5.221,5.221,0,0,1,.334-1.894,4.568,4.568,0,0,1,.947-1.509,4.422,4.422,0,0,1,3.272-1.37,4.41,4.41,0,0,1,1.845.365,4.009,4.009,0,0,1,2.159,2.337,4.585,4.585,0,0,1,.275,1.557v.829h-7.65a4.014,4.014,0,0,0,.148.956,3.359,3.359,0,0,0,.542,1.134,3.439,3.439,0,0,0,1.055.947,3.3,3.3,0,0,0,1.706.394,3.807,3.807,0,0,0,1.755-.433,3.147,3.147,0,0,0,1.3-1.183l.868.729Zm-.908-3.608a2.685,2.685,0,0,0-.247-1.144,3.074,3.074,0,0,0-.669-.937,3.194,3.194,0,0,0-1.007-.641,3.238,3.238,0,0,0-1.231-.236,3.022,3.022,0,0,0-1.608.394,3.559,3.559,0,0,0-1.015.907,3.613,3.613,0,0,0-.531,1,2.674,2.674,0,0,0-.159.661Z" transform="translate(-2201.922 -1270.345)" fill="#ff92ef"/>
</svg>
