<svg xmlns="http://www.w3.org/2000/svg" width="203.436" height="103.016" viewBox="0 0 203.436 103.016"><g transform="translate(0 0.5)"><path d="M2306.583,1292.537a4.117,4.117,0,0,0-4.162-3.973c-10.405.129-38.145.468-49.2.6a4.114,4.114,0,0,0-4.027,4.656l2.74,23.9a36.589,36.589,0,0,0,13.117-3.978c2.171-1.232,10.3-5.616,11.5-3.5,1.892,3.346-2.89,8.02-5.5,10.089-4.131,3.277-11.318,5.016-17.9,3.247l.807,6.05a4.113,4.113,0,0,0,4.191,3.568l33.761-.939,6.415,8.18a1.582,1.582,0,0,0,2.824-1.091c-.252-3.439-.537-7.328-.537-7.328l3.164-.09a4.118,4.118,0,0,0,4-4.251C2307.495,1319.372,2306.862,1300.753,2306.583,1292.537Zm-49.5,13.165c-1.092,0-1.976-1.766-1.976-3.94s.884-3.943,1.976-3.943,1.978,1.766,1.978,3.943S2258.172,1305.7,2257.081,1305.7Z" transform="translate(-2192.574 -1271.792)" fill="rgba(255,255,255,0.82)" fill-rule="evenodd"/><path d="M2305.945,1308.009a40.727,40.727,0,0,0,13.906,3.631l.13-24.1a4.423,4.423,0,0,0-1.355-3.227,4.662,4.662,0,0,0-3.3-1.343c-11.358.174-39.86.606-50.549.771a3.785,3.785,0,0,0-3.822,4.111c.635,8.266,2.074,27.005,2.719,35.368a4.467,4.467,0,0,0,1.475,2.941,4.639,4.639,0,0,0,3.1,1.22h46.958a3.793,3.793,0,0,0,3.9-3.706l.146-6.108a23.194,23.194,0,0,1-18.727-2.764c-2.908-2.006-8.341-6.572-6.773-9.988C2294.747,1302.648,2303.58,1306.831,2305.945,1308.009Zm9.26-17.441c1.118-.03,2.227,1.721,2.47,3.909s-.465,3.985-1.586,4.015-2.228-1.718-2.47-3.906S2314.083,1290.6,2315.2,1290.569Z" transform="translate(-2169.03 -1282.97)" fill="rgba(255,255,255,0.82)" fill-rule="evenodd"/><path d="M2237.863,1310.68l11.3,17.093v-17.252a3.8,3.8,0,0,1,.723-2.522,2.438,2.438,0,0,1,1.949-.843,2.516,2.516,0,0,1,2,.843,3.759,3.759,0,0,1,.732,2.522v22.811q0,3.823-3.166,3.82a4.156,4.156,0,0,1-1.424-.228,3.577,3.577,0,0,1-1.187-.723,6.886,6.886,0,0,1-1.028-1.157c-.318-.441-.633-.894-.952-1.355l-11.017-16.9v16.994a3.618,3.618,0,0,1-.774,2.513,2.549,2.549,0,0,1-1.979.852,2.522,2.522,0,0,1-2-.86,3.7,3.7,0,0,1-.754-2.5v-22.376a6.292,6.292,0,0,1,.319-2.237,3.194,3.194,0,0,1,1.243-1.454,3.412,3.412,0,0,1,1.881-.564,3.252,3.252,0,0,1,1.355.258,3.207,3.207,0,0,1,.989.692,7.1,7.1,0,0,1,.873,1.127q.445.693.917,1.445Z" transform="translate(-2230.286 -1234.636)" fill="#fff"/><path d="M2255.6,1322.171h-10.565a7.146,7.146,0,0,0,.744,3.244,4.967,4.967,0,0,0,4.561,2.831,6.525,6.525,0,0,0,1.768-.228,5.743,5.743,0,0,0,1.553-.714,11.489,11.489,0,0,0,1.385-1.037q.635-.554,1.644-1.505a1.767,1.767,0,0,1,1.187-.357,1.968,1.968,0,0,1,1.347.456,1.628,1.628,0,0,1,.512,1.286,3.538,3.538,0,0,1-.573,1.713,6.764,6.764,0,0,1-1.733,1.88,9.836,9.836,0,0,1-2.908,1.493,12.517,12.517,0,0,1-4.024.594q-5.2,0-8.093-2.968a11.057,11.057,0,0,1-2.89-8.051,13.379,13.379,0,0,1,.714-4.443,9.748,9.748,0,0,1,2.077-3.511,8.979,8.979,0,0,1,3.365-2.246,12.046,12.046,0,0,1,4.431-.783,10.506,10.506,0,0,1,5.431,1.337,8.784,8.784,0,0,1,3.394,3.451,9.107,9.107,0,0,1,1.128,4.314c0,1.359-.39,2.237-1.17,2.642a7.264,7.264,0,0,1-3.283.6Zm-10.565-3.068h9.795a6.558,6.558,0,0,0-1.492-4.144,4.48,4.48,0,0,0-3.416-1.376,4.327,4.327,0,0,0-3.314,1.394,6.957,6.957,0,0,0-1.573,4.126Z" transform="translate(-2211.852 -1229.309)" fill="#fff"/><path d="M2261.457,1328.75v-.693a12.02,12.02,0,0,1-2.038,2.057,7.557,7.557,0,0,1-2.333,1.238,9.5,9.5,0,0,1-2.89.4,7.448,7.448,0,0,1-3.512-.813,5.927,5.927,0,0,1-2.4-2.234,9.915,9.915,0,0,1-1.008-4.947v-10.7a3.479,3.479,0,0,1,.732-2.423,2.5,2.5,0,0,1,1.94-.8,2.571,2.571,0,0,1,1.976.809,3.439,3.439,0,0,1,.752,2.413v8.648a13.246,13.246,0,0,0,.317,3.154,3.8,3.8,0,0,0,1.137,2,3.256,3.256,0,0,0,2.225.719,4.531,4.531,0,0,0,2.572-.809,4.746,4.746,0,0,0,1.764-2.117,17.1,17.1,0,0,0,.453-5.025v-6.57a3.437,3.437,0,0,1,.753-2.413,2.546,2.546,0,0,1,1.958-.809,2.5,2.5,0,0,1,1.94.8,3.485,3.485,0,0,1,.731,2.423v15.651a3.348,3.348,0,0,1-.7,2.315,2.5,2.5,0,0,1-3.64-.03,3.234,3.234,0,0,1-.723-2.246Z" transform="translate(-2196.343 -1229.281)" fill="#fff"/><path d="M2260.32,1324v4.512a3.483,3.483,0,0,1-.77,2.462,2.571,2.571,0,0,1-1.958.822,2.469,2.469,0,0,1-1.919-.83,3.538,3.538,0,0,1-.752-2.453v-15.036q0-3.644,2.63-3.64a2.194,2.194,0,0,1,1.939.849,4.69,4.69,0,0,1,.654,2.513,9.381,9.381,0,0,1,1.988-2.513,4.1,4.1,0,0,1,2.719-.849,6.956,6.956,0,0,1,3.3.849,2.539,2.539,0,0,1,1.6,2.258,2.147,2.147,0,0,1-.683,1.631,2.12,2.12,0,0,1-1.473.642,6.69,6.69,0,0,1-1.436-.366,6.7,6.7,0,0,0-2.009-.366,2.925,2.925,0,0,0-1.937.624,4.026,4.026,0,0,0-1.169,1.85,12.944,12.944,0,0,0-.573,2.917q-.157,1.691-.159,4.126Z" transform="translate(-2181.059 -1229.281)" fill="#fff"/><path d="M2280.861,1320.817a12.71,12.71,0,0,1-.753,4.452,9.8,9.8,0,0,1-2.177,3.5,9.542,9.542,0,0,1-3.4,2.246,11.993,11.993,0,0,1-4.45.783,11.691,11.691,0,0,1-4.413-.792,9.725,9.725,0,0,1-5.568-5.748,12.706,12.706,0,0,1-.744-4.44,12.888,12.888,0,0,1,.752-4.492,9.8,9.8,0,0,1,2.156-3.484,9.533,9.533,0,0,1,3.4-2.225,12.921,12.921,0,0,1,8.863.009,9.595,9.595,0,0,1,5.592,5.739,12.813,12.813,0,0,1,.741,4.453Zm-5.421,0a8.114,8.114,0,0,0-1.454-5.146,4.726,4.726,0,0,0-3.907-1.841,4.862,4.862,0,0,0-2.791.822,5.207,5.207,0,0,0-1.859,2.425,10.988,10.988,0,0,0-.009,7.439,5.312,5.312,0,0,0,1.838,2.423,4.791,4.791,0,0,0,2.821.843,4.711,4.711,0,0,0,3.907-1.853,8.077,8.077,0,0,0,1.454-5.112Z" transform="translate(-2172.199 -1229.281)" fill="#fff"/><path d="M2268.14,1316.228c0-.351-.012-.776-.039-1.274s-.048-1.007-.063-1.52-.033-.992-.06-1.44-.039-.788-.039-1.034h2.429q.04,1.057.063,2.027a6.25,6.25,0,0,0,.1,1.256h.123a6.562,6.562,0,0,1,2.432-2.654,7.081,7.081,0,0,1,3.97-1.115,7.979,7.979,0,0,1,3.565.689,5.752,5.752,0,0,1,2.171,1.8,6.8,6.8,0,0,1,1.092,2.575,14.6,14.6,0,0,1,.3,3v11.142h-2.431v-11.022a11.9,11.9,0,0,0-.2-2.207,5.819,5.819,0,0,0-.708-1.925,3.708,3.708,0,0,0-1.418-1.358,4.855,4.855,0,0,0-2.372-.507,6.934,6.934,0,0,0-2.531.465,5.486,5.486,0,0,0-2.069,1.418,6.933,6.933,0,0,0-1.376,2.393,10.156,10.156,0,0,0-.507,3.382v9.361h-2.431v-13.454Z" transform="translate(-2155.043 -1228.008)" fill="#fff"/><path d="M2276.383,1306.663h2.432V1337.3h-2.432v-30.634Z" transform="translate(-2138.169 -1235.623)" fill="#fff"/><path d="M2280.761,1316.793h2.431v18.722h-2.431v-18.722Zm-.609-7.415a1.8,1.8,0,1,1,.527,1.3,1.761,1.761,0,0,1-.527-1.3Z" transform="translate(-2130.638 -1233.841)" fill="#fff"/><path d="M2284.325,1316.228c0-.351-.012-.776-.04-1.274s-.047-1.007-.063-1.52-.032-.992-.059-1.44-.039-.788-.039-1.034h2.428q.04,1.057.063,2.027a6.347,6.347,0,0,0,.1,1.256h.123a6.56,6.56,0,0,1,2.433-2.654,7.076,7.076,0,0,1,3.969-1.115,7.98,7.98,0,0,1,3.564.689,5.719,5.719,0,0,1,2.167,1.8,6.74,6.74,0,0,1,1.095,2.575,14.6,14.6,0,0,1,.306,3v11.142h-2.431v-11.022a11.9,11.9,0,0,0-.2-2.207,5.885,5.885,0,0,0-.708-1.925,3.7,3.7,0,0,0-1.418-1.358,4.851,4.851,0,0,0-2.372-.507,6.935,6.935,0,0,0-2.531.465,5.49,5.49,0,0,0-2.069,1.418,6.888,6.888,0,0,0-1.377,2.393,10.175,10.175,0,0,0-.507,3.382v9.361h-2.431v-13.454Z" transform="translate(-2122.701 -1228.008)" fill="#fff"/><path d="M2309.668,1326.155a8.19,8.19,0,0,1-3.505,3.079,11.156,11.156,0,0,1-4.6.933,9.971,9.971,0,0,1-3.888-.729,8.728,8.728,0,0,1-3-2.048,8.888,8.888,0,0,1-1.926-3.118,11.388,11.388,0,0,1-.669-3.991,10.721,10.721,0,0,1,.687-3.892,9.386,9.386,0,0,1,1.946-3.1,9.088,9.088,0,0,1,6.725-2.815,9.06,9.06,0,0,1,3.791.75,8.239,8.239,0,0,1,4.438,4.8,9.424,9.424,0,0,1,.566,3.2v1.7h-15.722a8.24,8.24,0,0,0,.305,1.964,6.9,6.9,0,0,0,1.113,2.329,7.069,7.069,0,0,0,2.167,1.946,6.776,6.776,0,0,0,3.5.81,7.821,7.821,0,0,0,3.606-.891,6.467,6.467,0,0,0,2.675-2.432l1.784,1.5Zm-1.865-7.415a5.515,5.515,0,0,0-.507-2.35,6.312,6.312,0,0,0-1.375-1.925,6.565,6.565,0,0,0-2.069-1.317,6.657,6.657,0,0,0-2.531-.486,6.21,6.21,0,0,0-3.3.81,7.317,7.317,0,0,0-2.086,1.864,7.424,7.424,0,0,0-1.092,2.045,5.494,5.494,0,0,0-.326,1.358Z" transform="translate(-2106.798 -1228.008)" fill="#fff"/><path d="M2306.583,1292.537a4.117,4.117,0,0,0-4.162-3.973c-10.405.129-38.145.468-49.2.6a4.114,4.114,0,0,0-4.027,4.656l2.74,23.9a36.589,36.589,0,0,0,13.117-3.978c2.171-1.232,10.3-5.616,11.5-3.5,1.892,3.346-2.89,8.02-5.5,10.089-4.131,3.277-11.318,5.016-17.9,3.247l.807,6.05a4.113,4.113,0,0,0,4.191,3.568l33.761-.939,6.415,8.18a1.582,1.582,0,0,0,2.824-1.091c-.252-3.439-.537-7.328-.537-7.328l3.164-.09a4.118,4.118,0,0,0,4-4.251C2307.495,1319.372,2306.862,1300.753,2306.583,1292.537Zm-49.5,13.165c-1.092,0-1.976-1.766-1.976-3.94s.884-3.943,1.976-3.943,1.978,1.766,1.978,3.943S2258.172,1305.7,2257.081,1305.7Z" transform="translate(-2192.574 -1271.792)" fill="rgba(255,255,255,0.82)" fill-rule="evenodd"/><path d="M2305.945,1308.009a40.727,40.727,0,0,0,13.906,3.631l.13-24.1a4.423,4.423,0,0,0-1.355-3.227,4.662,4.662,0,0,0-3.3-1.343c-11.358.174-39.86.606-50.549.771a3.785,3.785,0,0,0-3.822,4.111c.635,8.266,2.074,27.005,2.719,35.368a4.467,4.467,0,0,0,1.475,2.941,4.639,4.639,0,0,0,3.1,1.22h46.958a3.793,3.793,0,0,0,3.9-3.706l.146-6.108a23.194,23.194,0,0,1-18.727-2.764c-2.908-2.006-8.341-6.572-6.773-9.988C2294.747,1302.648,2303.58,1306.831,2305.945,1308.009Zm9.26-17.441c1.118-.03,2.227,1.721,2.47,3.909s-.465,3.985-1.586,4.015-2.228-1.718-2.47-3.906S2314.083,1290.6,2315.2,1290.569Z" transform="translate(-2169.029 -1282.97)" fill="rgba(255,255,255,0.82)" stroke="#6352ff" stroke-width="1" fill-rule="evenodd"/></g></svg>