<svg xmlns="http://www.w3.org/2000/svg" width="435.304" height="618.323" viewBox="0 0 435.304 618.323"><g transform="matrix(-1, -0.017, 0.017, -1, 429.525, 338.46)" fill="#fff" stroke-miterlimit="10"><path d="M 275.4690551757813 330.0984802246094 C 275.4648742675781 330.0984802246094 275.4662780761719 330.0984802246094 275.4620666503906 330.0984802246094 C 254.8683776855469 330.0983276367188 233.9980773925781 329.6917114257813 213.4309234619141 328.8899536132813 C 183.1677703857422 327.7100219726563 152.5579986572266 325.6360168457031 122.4519195556641 322.7256469726563 C 95.23361206054688 320.0944213867188 67.75038146972656 316.7140197753906 40.76553344726563 312.6783447265625 C 35.0579948425293 311.8244934082031 29.64484024047852 310.1216430664063 24.67653274536133 307.6170959472656 C 19.85630226135254 305.187255859375 15.59837913513184 302.0787048339844 12.02114772796631 298.3777770996094 C 8.452301979064941 294.685546875 5.687839984893799 290.5349426269531 3.804609537124634 286.041259765625 C 1.870455622673035 281.4262390136719 0.9283017516136169 276.5887145996094 1.00422477722168 271.6628723144531 C 1.721686363220215 225.1338653564453 4.03391695022583 140.6048736572266 8.073070526123047 13.24571514129639 C 9.486225128173828 -31.31120872497559 10.25630187988281 -72.29374694824219 10.93576335906982 -108.4518203735352 C 12.20737838745117 -176.1268310546875 13.12614822387695 -225.0229797363281 17.28007125854492 -242.1849060058594 C 18.36499404907227 -246.6681365966797 20.29068565368652 -250.9302062988281 23.00353240966797 -254.8528289794922 C 25.65722465515137 -258.6898193359375 29.00245475769043 -262.1169128417969 32.946533203125 -265.0389709472656 C 36.90068817138672 -267.9685974121094 41.35145568847656 -270.3125915527344 46.17514801025391 -272.0058288574219 C 51.12876510620117 -273.7446594238281 56.36283874511719 -274.7554321289063 61.73207092285156 -275.0100402832031 C 112.7462997436523 -277.4299621582031 164.5129241943359 -278.7354431152344 215.5937652587891 -278.8900451660156 C 219.0662994384766 -278.9005126953125 222.5877685546875 -278.9058227539063 226.0605316162109 -278.9058227539063 C 266.8103637695313 -278.9058227539063 308.1294555664063 -278.1741333007813 348.8699035644531 -276.7309875488281 C 354.6547546386719 -276.5260620117188 360.2776184082031 -275.4480590820313 365.5823059082031 -273.5267333984375 C 370.7307739257813 -271.6620483398438 375.4270629882813 -269.0615234375 379.5408325195313 -265.79736328125 C 383.6449279785156 -262.5408935546875 387.0242919921875 -258.7387390136719 389.5849914550781 -254.4966735839844 C 392.213134765625 -250.1428985595703 393.8956909179688 -245.4563598632813 394.5860595703125 -240.567138671875 C 396.5619812011719 -226.5772857666016 400.3773803710938 -174.4692077636719 405.9263000488281 -85.69020843505859 C 410.5282287597656 -12.06243896484375 415.3468322753906 71.17717742919922 418.225830078125 120.9112548828125 C 419.4409790039063 141.9031829833984 420.3190002441406 157.0701751708984 420.7756958007813 164.5607147216797 C 422.0379943847656 185.2594146728516 422.9024658203125 206.2625579833984 423.3450012207031 226.9867095947266 C 423.76416015625 246.6161041259766 423.8160705566406 266.52294921875 423.4992980957031 286.1542663574219 C 423.3333129882813 296.4518737792969 418.724853515625 306.2637939453125 410.5228271484375 313.7826232910156 C 402.2752990722656 321.34326171875 391.1011352539063 325.9395751953125 379.0589294433594 326.7248840332031 C 344.7391967773438 328.9632873535156 309.8829040527344 330.0984802246094 275.4690551757813 330.0984802246094 Z" stroke="none"/><path d="M 226.0612640380859 -279.9058837890625 L 226.0612640380859 -277.9058837890625 C 222.5902557373047 -277.9058837890625 219.0695037841797 -277.9005432128906 215.5968475341797 -277.8900451660156 C 164.53125 -277.7354736328125 112.7796020507813 -276.4304809570313 61.7794189453125 -274.01123046875 C 56.507080078125 -273.76123046875 51.36849975585938 -272.7689819335938 46.50634765625 -271.0623168945313 C 41.77725219726563 -269.4022216796875 37.41543579101563 -267.1053771972656 33.54183959960938 -264.2354736328125 C 29.68600463867188 -261.3788146972656 26.41717529296875 -258.0306396484375 23.82601928710938 -254.2839660644531 C 21.183349609375 -250.462890625 19.30801391601563 -246.3129577636719 18.25201416015625 -241.9496459960938 C 16.35592651367188 -234.11572265625 15.01434326171875 -218.9693908691406 14.03018188476563 -194.2830505371094 C 13.1195068359375 -171.4396362304688 12.57083129882813 -142.2413940429688 11.93557739257813 -108.4326324462891 C 11.256103515625 -72.27163696289063 10.48593139648438 -31.28580474853516 9.072601318359375 13.27744293212891 C 5.033660888671875 140.6282806396484 2.72149658203125 225.1519470214844 2.00408935546875 271.6782836914063 C 1.930267333984375 276.4653625488281 2.846343994140625 281.1676940917969 4.726837158203125 285.6546936035156 C 6.56182861328125 290.0333557128906 9.2579345703125 294.0802001953125 12.74008178710938 297.6826782226563 C 16.2392578125 301.3028564453125 20.40667724609375 304.3448486328125 25.1265869140625 306.72412109375 C 29.99984741210938 309.1806945800781 35.31134033203125 310.8512878417969 40.91342163085938 311.6893615722656 C 67.88140869140625 315.7224426269531 95.34725952148438 319.1007080078125 122.548095703125 321.7302856445313 C 152.6354370117188 324.6388549804688 183.2259216308594 326.7115173339844 213.4699249267578 327.8906860351563 C 234.0260925292969 328.6921081542969 254.8831787109375 329.0984497070313 275.4619140625 329.0984497070313 C 309.86083984375 329.0984497070313 344.6940002441406 327.964111328125 378.9938354492188 325.7269592285156 C 390.8096008300781 324.9564514160156 401.766845703125 320.4527893066406 409.8470764160156 313.0455322265625 C 417.8446044921875 305.7141723632813 422.3379211425781 296.1582641601563 422.4994201660156 286.1381225585938 C 422.8160095214844 266.5186767578125 422.7640991210938 246.6245269775391 422.3451843261719 227.0080261230469 C 421.9029235839844 206.2966156005859 421.0390930175781 185.3068542480469 419.7774963378906 164.6216125488281 C 419.3207702636719 157.1297760009766 418.4428405761719 141.9630279541016 417.2276611328125 120.9715270996094 C 414.3486633300781 71.23835754394531 409.5301818847656 -11.99980926513672 404.9283447265625 -85.62605285644531 C 399.3810119628906 -174.3803100585938 395.5682678222656 -226.4629821777344 393.5959167480469 -240.4273986816406 C 392.9244995117188 -245.1824035644531 391.2870178222656 -249.7421264648438 388.7289123535156 -253.9798889160156 C 386.2300109863281 -258.1194763183594 382.9295959472656 -261.8318786621094 378.9192504882813 -265.0140686035156 C 374.8902587890625 -268.2109680175781 370.2885131835938 -270.7587280273438 365.2417602539063 -272.5865478515625 C 360.0352478027344 -274.4722290039063 354.5150146484375 -275.5303955078125 348.8345031738281 -275.7316284179688 C 308.1075134277344 -277.17431640625 266.8005981445313 -277.9057922363281 226.0612640380859 -277.9058837890625 L 226.0612640380859 -279.9058837890625 M 226.0612487792969 -279.9058532714844 C 268.4009399414063 -279.9058227539063 309.3821411132813 -279.1304321289063 348.9053344726563 -277.7303771972656 C 372.9216613769531 -276.879638671875 392.6841735839844 -261.1898803710938 395.5762634277344 -240.7069702148438 C 401.1209106445313 -201.4498901367188 419.0790100097656 120.2996978759766 421.7738342285156 164.4998626708984 C 424.3772583007813 207.1879425048828 425.1177673339844 247.8295288085938 424.4991760253906 286.1703491210938 C 424.1469116210938 308.0209350585938 404.5082702636719 326.0674438476563 379.1240234375 327.7226867675781 C 346.9234313964844 329.822998046875 312.2812805175781 331.0984802246094 275.4619750976563 331.0984802246094 C 255.4033050537109 331.0984802246094 234.6926574707031 330.7196044921875 213.3920135498047 329.8891906738281 C 149.7661743164063 327.4085388183594 91.84576416015625 321.32861328125 40.61758422851563 313.6673583984375 C 16.912353515625 310.120849609375 -0.31414794921875 292.3014526367188 0.00433349609375 271.6474609375 C 0.711181640625 225.80810546875 2.9976806640625 141.7309417724609 7.073577880859375 13.21402740478516 C 11.14959716796875 -115.3028869628906 9.9107666015625 -215.9893188476563 16.30816650390625 -242.4201354980469 C 20.84075927734375 -261.1499633789063 39.4315185546875 -274.9536437988281 61.68466186523438 -276.0089721679688 C 110.7441711425781 -278.3361511230469 162.1050109863281 -279.7281494140625 215.5907592773438 -279.8900451660156 C 219.0910491943359 -279.900634765625 222.5793151855469 -279.9058532714844 226.0612487792969 -279.9058532714844 Z" stroke="none" fill="#69d4f3"/></g></svg>