<svg xmlns="http://www.w3.org/2000/svg" width="122.226" height="113.532" viewBox="0 0 122.226 113.532"><g transform="translate(-1216.15 -3125.468)"><path d="M1978.446,1050.835c-11.81-14.832-25.155-38.347-4.285-50.863,12.026-7.212,26.558-9.427,40.179-13.125,21.525-5.846,48.2-11.323,64.225,8.853,10.727,13.505,7.312,27.1.69,40.569-4.21,8.563-7.527,16.143-16.669,25.359-9.118,9.19-22.065,18.525-36.34,18.829-8.791.187-17.446-3.158-24.709-7.93A101.961,101.961,0,0,1,1978.446,1050.835Z" transform="translate(-747.079 2143.995)" fill="#b3e9f9" style="mix-blend-mode:multiply;isolation:isolate"/><path d="M98.242,81.639A11.783,11.783,0,0,1,87.035,91.993q-15.407.636-32.013.6c-12.843-.045-25.177-.435-36.957-1.085a11.8,11.8,0,0,1-10.9-9.394c-1.536-7.392-2.911-15.23-4.038-23.487a344.366,344.366,0,0,1-3.13-42A11.778,11.778,0,0,1,9.753,4.875,328.6,328.6,0,0,1,91.039.944a11.8,11.8,0,0,1,10.9,11.621c.149,10.723-.029,22.09-.654,34.029C100.633,58.956,99.573,70.659,98.242,81.639Z" transform="matrix(0.998, -0.07, 0.07, 0.998, 1223.263, 3132.582)" fill="#b4e9f9" opacity="0"/><g transform="translate(1175.339 3143.396)"><rect width="29.617" height="4.556" transform="translate(90.413 14.808)" fill="#75462e"/><circle cx="5.696" cy="5.696" r="5.696" transform="translate(110.917 0)" fill="#6b402a"/><path d="M128,278.294V263.486a11.391,11.391,0,0,0-11.391-11.391h-5.7v-9.113H99.526v9.113h-5.7a11.391,11.391,0,0,0-11.391,11.391v14.808Z" transform="translate(0 -211.087)" fill="#fec9a3"/><path d="M116.613,312.406h-.934l-10.457,13.669L94.97,312.406H93.831A11.391,11.391,0,0,0,82.44,323.8v14.808H128V323.8A11.391,11.391,0,0,0,116.613,312.406Z" transform="translate(-0.001 -271.398)" fill="#87ced9"/><g transform="translate(82.439 41.008)"><path d="M116.613,312.406h-.934l-10.457,13.669L94.97,312.406H93.831A11.391,11.391,0,0,0,82.44,323.8v14.808H128V323.8A11.391,11.391,0,0,0,116.613,312.406Z" transform="translate(-82.44 -312.406)" fill="#fff"/></g><path d="M82.441,395h45.564V380.188a11.356,11.356,0,0,0-.376-2.87c-14.307,11.619-34.686,14.5-45.188,15.2Z" transform="translate(-0.002 -327.79)" fill="#fcf9f9"/><g transform="translate(88.135 15.947)"><path d="M212.61,242.983V247.3a12.459,12.459,0,0,0,11.391,0v-4.317Z" transform="translate(-201.219 -227.036)" fill="#f7bb8f"/><path d="M131.526,128.326h-2.278a3.417,3.417,0,0,1-3.417-3.417h0a3.417,3.417,0,0,1,3.417-3.417h2.278Z" transform="translate(-125.83 -121.491)" fill="#f7bb8f"/></g><path d="M185.6,36.286V45.4a12.53,12.53,0,0,1-12.53,12.53h0a12.53,12.53,0,0,1-12.53-12.53V36.286a10.251,10.251,0,0,1,10.252-10.252h4.556A10.251,10.251,0,0,1,185.6,36.286Z" transform="translate(-67.851 -22.617)" fill="#fec9a3"/><g transform="translate(96.108 15.947)"><circle cx="2.278" cy="2.278" r="2.278" fill="#75462e"/><circle cx="2.278" cy="2.278" r="2.278" transform="translate(13.669)" fill="#75462e"/></g><g transform="translate(101.803 16.722)"><path d="M239.977,197.658h-1.333V195.38h1.333a6.6,6.6,0,0,0,4.693-1.948l1.618,1.618A8.864,8.864,0,0,1,239.977,197.658Z" transform="translate(-237.504 -184.763)" fill="#f0b184"/><path d="M234.518,135.73H231.1a1.149,1.149,0,0,1-1.082-1.5l2.278-6.835,2.164.729-1.777,5.331h1.834Z" transform="translate(-229.961 -127.392)" fill="#f0b184"/></g><path d="M157.994,0a14.808,14.808,0,0,0-14.808,14.808v1.139c0-.057,1.139,0,2.278,0,0,0,15.947-1.139,18.226-10.252a23.992,23.992,0,0,0,6.835,9.113l2.278,1.139V14.808A14.808,14.808,0,0,0,157.994,0Z" transform="translate(-52.773)" fill="#75462e"/><path d="M351.458,112.814H352.6a3.417,3.417,0,0,1,3.417,3.417h0a3.417,3.417,0,0,1-3.417,3.417h-1.139Z" transform="translate(-233.707 -98.006)" fill="#f7bb8f"/></g><circle cx="20" cy="20" r="20" transform="translate(1225 3199)" fill="#6352ff"/><text transform="translate(1245 3226)" fill="#fff" font-size="20" font-family="Arial-BoldMT, Arial" font-weight="700"><tspan x="-8.34" y="0">3.</tspan></text></g></svg>