<svg xmlns="http://www.w3.org/2000/svg" width="122.226" height="115.532" viewBox="0 0 122.226 115.532"><g transform="translate(-898.887 -3123.468)"><path d="M1978.446,1050.835c-11.81-14.832-25.155-38.347-4.285-50.863,12.026-7.212,26.558-9.427,40.179-13.125,21.525-5.846,48.2-11.323,64.225,8.853,10.727,13.505,7.312,27.1.69,40.569-4.21,8.563-7.527,16.143-16.669,25.359-9.118,9.19-22.065,18.525-36.34,18.829-8.791.187-17.446-3.158-24.709-7.93A101.961,101.961,0,0,1,1978.446,1050.835Z" transform="translate(-1064.342 2141.995)" fill="#b3e9f9" style="mix-blend-mode:multiply;isolation:isolate"/><path d="M98.242,81.639A11.783,11.783,0,0,1,87.035,91.993q-15.407.636-32.013.6c-12.843-.045-25.177-.435-36.957-1.085a11.8,11.8,0,0,1-10.9-9.394c-1.536-7.392-2.911-15.23-4.038-23.487a344.366,344.366,0,0,1-3.13-42A11.778,11.778,0,0,1,9.753,4.875,328.6,328.6,0,0,1,91.039.944a11.8,11.8,0,0,1,10.9,11.621c.149,10.723-.029,22.09-.654,34.029C100.633,58.956,99.573,70.659,98.242,81.639Z" transform="matrix(0.998, -0.07, 0.07, 0.998, 906, 3132.582)" fill="#b4e9f9" opacity="0"/><g transform="translate(929.376 3143.396)"><path d="M4.614,10.125H55.369a4.614,4.614,0,0,1,4.614,4.614V65.494a4.614,4.614,0,0,1-4.614,4.614H4.614A4.614,4.614,0,0,1,0,65.494V14.739A4.614,4.614,0,0,1,4.614,10.125Z" transform="translate(0 -10.125)" fill="#edeada"/><rect width="2.307" height="2.307" transform="translate(3.461 3.461)" fill="#cec9ae"/><rect width="2.307" height="2.307" transform="translate(8.075 3.461)" fill="#cec9ae"/><rect width="2.307" height="2.307" transform="translate(12.689 3.461)" fill="#cec9ae"/><rect width="53.062" height="2.307" transform="translate(3.461 8.075)" fill="#cec9ae"/><rect width="19.61" height="2.307" transform="translate(18.456 17.303)" fill="#cec9ae"/><rect width="8.075" height="2.307" transform="translate(18.456 21.917)" fill="#cec9ae"/><rect width="16.149" height="2.307" transform="translate(28.838 21.917)" fill="#cec9ae"/><rect width="11.535" height="2.307" transform="translate(40.373 17.303)" fill="#cec9ae"/><path d="M36.167,153.386a5.768,5.768,0,1,1,5.768-5.768A5.768,5.768,0,0,1,36.167,153.386Zm0-9.228a3.461,3.461,0,1,0,3.461,3.461A3.46,3.46,0,0,0,36.167,144.158Z" transform="translate(-26.938 -126.855)" fill="#cec9ae"/><rect width="19.61" height="2.307" transform="translate(18.456 31.145)" fill="#cec9ae"/><rect width="8.075" height="2.307" transform="translate(18.456 35.759)" fill="#cec9ae"/><rect width="16.149" height="2.307" transform="translate(28.838 35.759)" fill="#cec9ae"/><rect width="11.535" height="2.307" transform="translate(40.373 31.145)" fill="#cec9ae"/><path d="M36.167,274.978a5.768,5.768,0,1,1,5.768-5.768A5.768,5.768,0,0,1,36.167,274.978Zm0-9.228a3.461,3.461,0,1,0,3.461,3.461A3.46,3.46,0,0,0,36.167,265.75Z" transform="translate(-26.938 -234.605)" fill="#cec9ae"/><rect width="19.61" height="2.307" transform="translate(18.456 44.987)" fill="#cec9ae"/><rect width="8.075" height="2.307" transform="translate(18.456 49.601)" fill="#cec9ae"/><rect width="16.149" height="2.307" transform="translate(28.838 49.601)" fill="#cec9ae"/><rect width="11.535" height="2.307" transform="translate(40.373 44.987)" fill="#cec9ae"/><path d="M36.167,396.571a5.768,5.768,0,1,1,5.768-5.768A5.768,5.768,0,0,1,36.167,396.571Zm0-9.228a3.461,3.461,0,1,0,3.461,3.461A3.46,3.46,0,0,0,36.167,387.343Z" transform="translate(-26.938 -342.356)" fill="#cec9ae"/><rect width="9.787" height="2.307" transform="translate(8.413 19.948) rotate(-45)" fill="#6352ff"/><rect width="9.787" height="2.307" transform="translate(8.411 33.789) rotate(-45)" fill="#6352ff"/><rect width="9.787" height="2.307" transform="translate(8.412 47.632) rotate(-45)" fill="#6352ff"/><circle cx="16.149" cy="16.149" r="16.149" transform="translate(36.912 34.605)" fill="#fff4a3"/><path d="M389.446,393.681a1.1,1.1,0,0,1-.185-.015,1.152,1.152,0,0,1-.848-.623l-2.307-4.614,2.065-1.031,1.591,3.183,12.711-12.711L404.1,379.5l-13.842,13.842A1.151,1.151,0,0,1,389.446,393.681Z" transform="translate(-342.152 -336.006)" fill="#6352ff"/></g><circle cx="20" cy="20" r="20" transform="translate(902 3199)" fill="#6352ff"/><text transform="translate(922 3226)" fill="#fff" font-size="20" font-family="Arial-BoldMT, Arial" font-weight="700"><tspan x="-8.34" y="0">2.</tspan></text></g></svg>