<svg xmlns="http://www.w3.org/2000/svg" width="26.683" height="26.683" viewBox="0 0 26.683 26.683"><g transform="translate(0.22 0.08)"><path d="M24.083,22.04a3.017,3.017,0,0,1-2.747,2.8c-2.518.114-5.136.174-7.847.163-3.148-.012-6.172-.117-9.06-.293A3,3,0,0,1,1.757,22.17c-.377-2-.714-4.112-.99-6.341A102.227,102.227,0,0,1,0,4.489,3.114,3.114,0,0,1,2.391,1.316,73.254,73.254,0,0,1,22.317.255a3.074,3.074,0,0,1,2.671,3.137c.036,2.895-.007,5.964-.16,9.187C24.669,15.917,24.409,19.076,24.083,22.04Z" transform="matrix(0.998, -0.07, 0.07, 0.998, -0.22, 1.664)" fill="#fff"/><path d="M14.355,3.239c.01.142.01.284.01.426a9.266,9.266,0,0,1-9.33,9.33A9.267,9.267,0,0,1,0,11.523a6.784,6.784,0,0,0,.792.041,6.567,6.567,0,0,0,4.071-1.4A3.285,3.285,0,0,1,1.8,7.888a4.135,4.135,0,0,0,.619.051,3.468,3.468,0,0,0,.863-.112A3.28,3.28,0,0,1,.65,4.609V4.569a3.3,3.3,0,0,0,1.482.416A3.284,3.284,0,0,1,1.117.6,9.321,9.321,0,0,0,7.878,4.03,3.7,3.7,0,0,1,7.8,3.279a3.282,3.282,0,0,1,5.675-2.244A6.456,6.456,0,0,0,15.553.244a3.27,3.27,0,0,1-1.442,1.807A6.574,6.574,0,0,0,16,1.543a7.049,7.049,0,0,1-1.645,1.7Z" transform="matrix(0.998, -0.07, 0.07, 0.998, 4.78, 8.036)" fill="#6352ff"/></g></svg>