<svg xmlns="http://www.w3.org/2000/svg" xmlns:xlink="http://www.w3.org/1999/xlink" width="1920" height="188" viewBox="0 0 1920 188">
  <defs>
    <clipPath id="clip-path">
      <rect id="Rectangle_1175" data-name="Rectangle 1175" width="1920" height="188" transform="translate(-13723 1956)" fill="none" stroke="#707070" stroke-width="1"/>
    </clipPath>
  </defs>
  <g id="wave-benefits-1" transform="translate(13723 -1956)" clip-path="url(#clip-path)">
    <path id="Subtraction_3" data-name="Subtraction 3" d="M1225.844,0h-.055c-34.794,0-71.055.512-107.776,1.521-35.132.965-71.613,2.411-108.43,4.3-68.509,3.508-140.719,8.666-214.624,15.33C670.49,32.371,538.969,48.021,404.05,67.663c-53.018,7.718-106.679,16.076-159.491,24.843-42.272,7.016-84.1,14.307-124.318,21.671C52.274,126.619,11.117,135.233,10.709,135.318,10.642,137.22.134,438.17,0,442c17.858-1.966,35.753-3.795,53.186-5.435V268.689c.416-.146,44.918-15.715,117.9-38.26,43.132-13.325,87.845-26.519,132.9-39.217,56.313-15.871,113.282-31,169.324-44.955C616,110.714,753.713,82.394,882.633,62.083c37.269-5.871,74.285-11.141,110.019-15.662,37.609-4.759,74.847-8.822,110.681-12.076,37.572-3.411,74.627-6.026,110.137-7.771,37.121-1.824,73.588-2.75,108.386-2.75s70.311.925,105.552,2.75c33.711,1.746,68.071,4.36,102.127,7.771,32.48,3.254,65.531,7.317,98.236,12.076,31.074,4.521,62.659,9.791,93.876,15.662a2436.094,2436.094,0,0,1,322.578,84.173c41.663,13.962,83.044,29.087,122.992,44.955,31.962,12.7,63.076,25.891,92.478,39.217,26.162,11.858,46.1,21.629,58.227,27.739,13.065,6.584,20.174,10.485,20.24,10.522v378.05c15.872-8.027,27.316-14.563,34.154-18.468l.033-.019a69.369,69.369,0,0,1,7.4-3.995l14.168-405.715-.006,0c-1.2-.512-30.034-12.743-80.854-30.916-30.32-10.843-62.434-21.654-95.449-32.132-41.253-13.092-84.025-25.693-127.128-37.452-109.71-29.931-222.182-54.655-334.29-73.485-32.391-5.441-65.2-10.456-97.512-14.907-34.009-4.684-68.377-8.868-102.149-12.435-35.44-3.743-71.211-6.912-106.319-9.419-36.7-2.622-73.716-4.594-110.019-5.862C1303.491.649,1265.019,0,1225.844,0Z" transform="translate(-13980.944 1956.207)" fill="#fff8c7" opacity="0.5"/>
    <path id="Path_634" data-name="Path 634" d="M2287.837,1909.117c-9.885,4.356-305.307,317.96-855.4,135.024S644.641,1641.247,2.863,1774.093V1355.954H2287.837Z" transform="translate(-13907.904 769.564)" fill="#fffbe3" opacity="0.5"/>
    <path id="Path_635" data-name="Path 635" d="M2287.837,2013.483c-9.885,3.589-305.307,261.981-855.4,111.252S644.641,1792.773,2.863,1902.231V1557.708s697.425-201.754,1268.669-201.754,1016.305,201.754,1016.305,201.754Z" transform="translate(-13918.62 621.704)" fill="#fff8c7"/>
  </g>
</svg>
