<?xml version="1.0" encoding="utf-8"?>
<!-- Generator: Adobe Illustrator 24.1.1, SVG Export Plug-In . SVG Version: 6.00 Build 0)  -->
<svg version="1.1" id="Capa_1" xmlns="http://www.w3.org/2000/svg" xmlns:xlink="http://www.w3.org/1999/xlink" x="0px" y="0px"
	 viewBox="0 0 1921 151.7" style="enable-background:new 0 0 1921 151.7;" xml:space="preserve">
<style type="text/css">
	.st0{opacity:0.5;fill:#6352FF;enable-background:new    ;}
	.st1{fill:#6352FF;}
</style>
<g transform="translate(7059.502 -8943.83)">
	<path class="st0" d="M-7059.5,9063.6L-7059.5,9063.6L-7059.5,9063.6v-53.9c90.6-13.4,154-22.1,212.1-29
		c65.6-7.8,125.8-13.6,189.4-18c64.1-4.5,134.4-7.9,221.3-10.7c78-2.5,172.9-4.7,307.7-7.1c39.6-0.7,80-1,120-1
		c74.5,0,150.8,1.2,226.9,3.6c69.2,2.2,139.6,5.3,209.5,9.4c117.7,6.9,235.8,16.6,351.1,28.6c27.6,2.9,55.4,6,82.5,9.1v36.4
		c-63.2-7.3-107.1-12.2-146.9-16.4c-68.2-7.3-123.7-12.5-174.6-16.4c-109.2-8.3-211.9-11.7-354.4-11.7c-83.1,0-182.2,1.1-331.3,3.7
		c-44.5,0.8-89.9,2-135,3.7c-43,1.6-86.9,3.6-130.5,6c-80.5,4.4-162.8,10.3-244.6,17.5C-6791.5,9029.3-6927.2,9044.8-7059.5,9063.6z
		"/>
	<path class="st0" d="M-7059.5,9063.6L-7059.5,9063.6L-7059.5,9063.6v-48.9c59.1-7.8,109.9-13.7,160-18.5
		c26.4-2.5,52.3-4.7,79.1-6.7c27-2,54.4-3.8,83.9-5.4c57.1-3.1,120-5.6,197.8-7.9c69.9-2,151.4-3.8,264.2-5.7c39.5-0.7,79.9-1,120-1
		c74.5,0,150.8,1.2,226.9,3.6c69.2,2.2,139.7,5.3,209.5,9.4c38.1,2.2,76.7,4.8,114.8,7.6c-62.4-2.4-129.7-3.5-211.5-3.5
		c-83.1,0-182.2,1.1-331.3,3.7c-44.4,0.8-89.8,2-135,3.7c-43.1,1.6-87,3.6-130.5,6c-80.6,4.4-162.9,10.3-244.6,17.5
		C-6791.5,9029.3-6927.2,9044.8-7059.5,9063.6L-7059.5,9063.6z"/>
	<path class="st1" d="M-5138.5,9095.5h-1921v-32c132.3-18.7,268-34.2,403.2-46.1c81.7-7.2,164-13.1,244.6-17.5
		c43.5-2.4,87.4-4.4,130.5-6c45.1-1.7,90.5-2.9,135-3.7c149.1-2.6,248.2-3.7,331.3-3.7c142.5,0,245.1,3.4,354.4,11.7
		c50.9,3.9,106.3,9.1,174.6,16.4c39.8,4.3,83.9,9.2,147.4,16.5L-5138.5,9095.5L-5138.5,9095.5z"/>
</g>
</svg>
