<?xml version="1.0" encoding="utf-8"?>
<!-- Generator: Adobe Illustrator 24.1.1, SVG Export Plug-In . SVG Version: 6.00 Build 0)  -->
<svg version="1.1" id="Capa_1" xmlns="http://www.w3.org/2000/svg" xmlns:xlink="http://www.w3.org/1999/xlink" x="0px" y="0px"
	 viewBox="0 0 1919 144.9" style="enable-background:new 0 0 1919 144.9;" xml:space="preserve">
<style type="text/css">
	.st0{opacity:0.5;fill:#FEDAEB;enable-background:new    ;}
	.st1{fill:#FEDAEB;}
</style>
<g transform="translate(7212.5 -8122.077)">
	<path class="st0" d="M-5293.5,8267.5h-0.2c0-0.2,0-0.9,0-1.1c-37.6-30.3-78.7-38.1-126.7-52.2c-554.8-135.5-1190-26.7-1791.2,9.1
		l-0.8,44.2h0v-57.1c222.9-10,439.8-50.4,681.5-68.9c425.7-36.7,827-24.1,1237.5,66.1C-5293.5,8207.6-5293.5,8267.5-5293.5,8267.5z"
		/>
	<path class="st1" d="M-5293.7,8267h-1918.8l0.8-44.7c597.2-42.7,1241.7-131.7,1794.7-31.2c57.5,10,123.3,15.9,123.3,15.9
		L-5293.7,8267L-5293.7,8267z"/>
</g>
</svg>
