<svg xmlns="http://www.w3.org/2000/svg" width="1921.002" height="151.671" viewBox="0 0 1921.002 151.671"><g transform="translate(7059.502 -8943.83)"><path d="M46.5,119.721v0h0V65.859c90.6-13.386,154.038-22.058,212.107-29,65.588-7.838,125.786-13.57,189.448-18.038,64.111-4.5,134.431-7.906,221.3-10.724,78.022-2.53,172.909-4.707,307.662-7.059C1016.623.35,1057,0,1097.016,0c74.451,0,150.789,1.2,226.9,3.581,69.153,2.16,139.65,5.337,209.533,9.441,117.695,6.913,235.818,16.551,351.088,28.648,27.632,2.9,55.378,5.975,82.467,9.136V87.187c-63.2-7.27-107.135-12.184-146.919-16.432-68.224-7.287-123.7-12.49-174.573-16.374-109.248-8.343-211.925-11.747-354.4-11.747-83.129,0-182.207,1.11-331.292,3.713-44.455.775-89.878,2.017-135.006,3.69-43.036,1.6-86.941,3.625-130.5,6.03C613.786,60.515,531.5,66.413,449.736,73.6,314.451,85.49,178.783,101.007,46.5,119.721Z" transform="translate(-7106 8943.83)" fill="#6352ff" opacity="0.5"/><path d="M0,94.177l0,0H0V45.268c59.087-7.829,109.915-13.707,159.962-18.5,26.381-2.526,52.27-4.726,79.147-6.726,26.971-2.009,54.406-3.775,83.871-5.4C380.13,11.5,442.97,9,520.743,6.775c69.872-2,151.353-3.766,264.2-5.736C824.491.35,864.865,0,904.942,0c74.492,0,150.831,1.205,226.9,3.582,69.2,2.161,139.693,5.338,209.533,9.441,38.054,2.235,76.672,4.79,114.781,7.594-62.431-2.406-129.651-3.528-211.545-3.528-83.081,0-182.159,1.11-331.293,3.712-44.413.776-89.837,2.018-135.007,3.691-43.054,1.6-86.96,3.625-130.5,6.03-80.567,4.45-162.853,10.348-244.573,17.531C267.963,59.944,132.295,75.462,0,94.176Z" transform="translate(-7059.5 8969.375)" fill="#6352ff" opacity="0.5"/><path d="M1954.5,109.036H33.5V77.086C165.816,58.369,301.484,42.851,436.737,30.964,518.481,23.78,600.767,17.882,681.31,13.433,724.847,11.027,768.753,9,811.806,7.4c45.116-1.673,90.539-2.914,135.006-3.69C1095.9,1.11,1194.983,0,1278.1,0c142.468,0,245.146,3.4,354.4,11.747,50.875,3.884,106.347,9.086,174.573,16.374,39.848,4.255,83.936,9.186,147.419,16.49v64.425Z" transform="translate(-7093 8986.465)" fill="#6352ff"/></g></svg>