<svg xmlns="http://www.w3.org/2000/svg" width="26.683" height="26.683" viewBox="0 0 26.683 26.683"><g transform="translate(-3.17 0.08)"><path d="M24.083,22.04a3.017,3.017,0,0,1-2.747,2.8c-2.518.114-5.136.174-7.847.163-3.148-.012-6.172-.117-9.06-.293A3,3,0,0,1,1.757,22.17c-.377-2-.714-4.112-.99-6.341A102.227,102.227,0,0,1,0,4.489,3.114,3.114,0,0,1,2.391,1.316,73.254,73.254,0,0,1,22.317.255a3.074,3.074,0,0,1,2.671,3.137c.036,2.895-.007,5.964-.16,9.187C24.669,15.917,24.409,19.076,24.083,22.04Z" transform="matrix(0.998, -0.07, 0.07, 0.998, 3.17, 1.664)" fill="#fff"/><path d="M15.666,1.76A2.01,2.01,0,0,0,14.251.337,47.51,47.51,0,0,0,8,0,47.511,47.511,0,0,0,1.749.337,2.01,2.01,0,0,0,.334,1.76,21.09,21.09,0,0,0,0,5.636,21.09,21.09,0,0,0,.334,9.512a1.98,1.98,0,0,0,1.415,1.4A47.511,47.511,0,0,0,8,11.25a47.51,47.51,0,0,0,6.251-.337,1.98,1.98,0,0,0,1.415-1.4A21.09,21.09,0,0,0,16,5.636a21.09,21.09,0,0,0-.334-3.876Zm-9.3,6.255V3.257l4.182,2.379L6.364,8.015Z" transform="matrix(0.998, -0.07, 0.07, 0.998, 8.17, 8.036)" fill="#6352ff"/></g></svg>